<?xml version="1.0" encoding="UTF-8"?>
<svg width="163px" height="98px" viewBox="0 0 163 98" version="1.1" xmlns="http://www.w3.org/2000/svg" xmlns:xlink="http://www.w3.org/1999/xlink">
    <!-- Generator: Sketch 42 (36781) - http://www.bohemiancoding.com/sketch -->
    <title>Innercitymd_logo</title>
    <desc>Created with Sketch.</desc>
    <defs>
        <polygon id="path-1" points="0.0149085366 14.3660557 0.0149085366 0.0947746835 2.02085213 0.0947746835 2.02085213 14.3660557 0.0149085366 14.3660557"></polygon>
    </defs>
    <g id="Page-1" stroke="none" stroke-width="1" fill="none" fill-rule="evenodd">
        <g id="Desktop" transform="translate(-63.000000, -36.000000)">
            <g id="Innercitymd_logo" transform="translate(63.000000, 36.000000)">
                <g id="Group-3" transform="translate(0.000000, 69.468354)">
                    <mask id="mask-2" fill="white">
                        <use xlink:href="#path-1"></use>
                    </mask>
                    <g id="Clip-2"></g>
                    <path d="M2.02085213,0.203691139 L1.87226372,5.47509873 L1.87226372,9.55611646 L2.01737348,14.3660557 L0.987690549,14.3660557 L0.441044207,14.3660557 L0,14.3660557 C0.0561554878,13.7758228 0.0986448171,12.9823949 0.126722561,11.9852759 C0.154800305,10.988157 0.16921189,10.1312152 0.16921189,9.41519494 L0.16921189,7.22421266 L0.108832317,4.86204051 L0.108832317,2.39368101 L0,0.0947746835 L0.463158537,0.0947746835 L1.03142226,0.0947746835 L1.68367073,0.0947746835 C1.82430793,0.149356962 1.9366189,0.185579747 2.02085213,0.203691139" id="Fill-1" fill="#853324" mask="url(#mask-2)"></path>
                </g>
                <path d="M5.38794512,73.9178025 L5.84191006,73.9178025 L6.27475457,73.9178025 L6.65492226,73.9178025 L7.01421799,73.9178025 L6.94638415,75.6187848 L7.00676372,75.896162 C7.45352287,75.1950278 7.93531707,74.6903899 8.45164939,74.3815038 C8.96847866,74.0723696 9.596625,73.9178025 10.3368338,73.9178025 C11.4114909,73.9178025 12.2426418,74.2192456 12.8285473,74.8223797 C13.4149497,75.4242734 13.7081509,76.2864253 13.7081509,77.4073468 L13.6273963,80.9390684 L13.6273963,83.8344101 L12.7520168,83.8344101 L11.8768857,83.8344101 C11.934532,83.2595595 11.9847241,82.4787848 12.0282073,81.4903494 C12.0711936,80.5026582 12.0930595,79.5186886 12.0930595,78.5379443 C12.0930595,77.1220304 11.8870732,76.1698177 11.4755976,75.6793215 C11.0638735,75.1890734 10.4744893,74.9434532 9.70694817,74.9434532 C8.60471037,74.9434532 7.87866463,75.2865772 7.52980488,75.9735696 C7.18094512,76.6603139 7.00676372,77.6194734 7.00676372,78.853281 L6.94638415,81.6692304 L7.00676372,83.8344101 L6.16840701,83.8344101 L5.26668902,83.8344101 C5.33526829,83.3238177 5.38670274,82.3765671 5.42124085,80.9936506 C5.45503354,79.6104861 5.47242683,78.3794076 5.47242683,77.3014076 L5.38794512,73.9178025" id="Fill-4" fill="#853324"></path>
                <path d="M16.7758308,73.9178025 L17.2300442,73.9178025 L17.6631372,73.9178025 L18.0433049,73.9178025 L18.4023521,73.9178025 L18.3345183,75.6187848 L18.3948979,75.896162 C18.841657,75.1950278 19.3232027,74.6903899 19.840032,74.3815038 C20.3563643,74.0723696 20.9850076,73.9178025 21.724968,73.9178025 C22.799625,73.9178025 23.6307759,74.2192456 24.2169299,74.8223797 C24.8033323,75.4242734 25.0962851,76.2864253 25.0962851,77.4073468 L25.015282,80.9390684 L25.015282,83.8344101 L24.1406479,83.8344101 L23.2650198,83.8344101 C23.3226662,83.2595595 23.3728582,82.4787848 23.4163415,81.4903494 C23.4593277,80.5026582 23.4811936,79.5186886 23.4811936,78.5379443 C23.4811936,77.1220304 23.2752073,76.1698177 22.8637317,75.6793215 C22.4520076,75.1890734 21.8621265,74.9434532 21.0953308,74.9434532 C19.992596,74.9434532 19.2672957,75.2865772 18.9181875,75.9735696 C18.5693277,76.6603139 18.3948979,77.6194734 18.3948979,78.853281 L18.3345183,81.6692304 L18.3948979,83.8344101 L17.5565412,83.8344101 L16.6553201,83.8344101 C16.7236509,83.3238177 16.7748369,82.3765671 16.8091265,80.9936506 C16.8434162,79.6104861 16.860561,78.3794076 16.860561,77.3014076 L16.7758308,73.9178025" id="Fill-5" fill="#853324"></path>
                <path d="M29.3481997,78.1166684 L32.1485198,78.1638076 L33.1034116,78.1638076 C33.6264527,78.1638076 34.1569482,78.1434633 34.6944009,78.101038 L34.927968,78.0804456 C34.927968,77.0962278 34.7331631,76.2678177 34.3440503,75.5934785 C33.9556829,74.918643 33.2872835,74.5819696 32.339846,74.5819696 C31.4766418,74.5819696 30.7625229,74.9040051 30.1964954,75.5498127 C29.6309649,76.1946278 29.3481997,77.0503291 29.3481997,78.1166684 Z M32.5068216,84.1120354 C30.9354619,84.1120354 29.7179314,83.6590025 28.8547271,82.7549215 C27.9915229,81.8500962 27.5601692,80.5842835 27.5601692,78.9577316 C27.5601692,77.4013924 27.9882927,76.1742835 28.8440427,75.2766532 C29.7000412,74.3787747 30.878561,73.9302076 32.380596,73.9302076 C33.741497,73.9302076 34.7838521,74.3127797 35.5064192,75.0769316 C36.2292348,75.8415797 36.5910152,76.9237975 36.5910152,78.326562 L36.5693979,78.936643 C36.0344299,78.936643 35.4716326,78.9299443 34.8805091,78.9160506 C34.2891372,78.9031494 33.7047226,78.8895038 33.1277622,78.8763544 L29.6225168,78.936643 L29.3481997,78.936643 L29.3481997,79.2098025 C29.3481997,80.5001772 29.6568064,81.5034987 30.2745168,82.2185266 C30.8922271,82.9338025 31.7690976,83.2913165 32.9066189,83.2913165 C34.1552088,83.2913165 35.2221631,82.8047899 36.1067363,81.8319848 L36.2327134,81.8319848 L36.0644954,82.9067595 C35.4751113,83.3086835 34.8959146,83.6096304 34.3278994,83.8105924 C33.7593872,84.0110582 33.1523613,84.1120354 32.5068216,84.1120354 L32.5068216,84.1120354 Z" id="Fill-6" fill="#853324"></path>
                <path d="M39.0109192,76.4315646 L38.9264375,74.2678734 L38.9264375,74.0391241 C39.2032393,73.9589873 39.4728354,73.9178025 39.7357226,73.9178025 L40.0465655,73.9178025 L40.5862546,73.9178025 L40.5092271,75.7398582 L40.5092271,76.0777722 C40.9035579,75.5969519 41.2983857,75.1166278 41.6927165,74.6355595 C42.1720259,74.1405975 42.7214055,73.8939848 43.3413521,73.8939848 C43.5525564,73.8939848 43.7570518,73.9426127 43.9543415,74.0411089 C43.8979375,74.208081 43.8561936,74.4013519 43.8281159,74.6174481 C43.7995412,74.8347848 43.785875,75.0476557 43.785875,75.2573013 L43.8069954,75.6346633 L43.6591524,75.7398582 C43.3346433,75.506643 42.996468,75.3895392 42.6446265,75.3895392 C41.2208613,75.3895392 40.5092271,76.496319 40.5092271,78.708638 L40.5092271,80.5569924 L40.5937088,83.8344101 L39.8850564,83.8344101 L38.9264375,83.8344101 L38.9264375,83.6289823 L39.0109192,81.3489316 L39.0109192,76.4315646" id="Fill-7" fill="#853324"></path>
                <path d="M53.0085442,84.1239443 C50.6641768,84.1239443 48.8187485,83.4796253 47.4712652,82.1909873 C46.123782,80.9028456 45.4504131,79.1311544 45.4504131,76.8759139 C45.4504131,74.5655949 46.1660229,72.7447797 47.5977393,71.4144608 C49.0294558,70.0838937 50.9946494,69.4184861 53.4928232,69.4184861 C54.3344101,69.4184861 55.1099024,69.4852253 55.8188034,69.6172152 C56.5274558,69.7499494 57.1906372,69.954881 57.808596,70.2332506 C57.5973918,70.7493013 57.4575,71.2531949 57.3871814,71.743443 L57.2398354,71.782643 C56.734436,71.2941316 56.1485305,70.9140405 55.4818704,70.6441063 C54.8149619,70.3744203 54.1381143,70.2384608 53.4503338,70.2384608 C51.6121113,70.2384608 50.173189,70.819762 49.134561,71.9821165 C48.0959329,73.1444709 47.5766189,74.7687899 47.5766189,76.8553215 C47.5766189,78.8294633 48.075061,80.3979595 49.0711997,81.5603139 C50.0680838,82.7224203 51.4153186,83.3032253 53.1131524,83.3032253 C54.7692424,83.3032253 56.2923979,82.724157 57.6818735,81.5665165 L57.7872271,81.6292861 L57.4922866,82.866319 C56.2712774,83.7046532 54.7766966,84.1239443 53.0085442,84.1239443" id="Fill-8" fill="#853324"></path>
                <path d="M60.0809055,73.9178025 C60.2210457,73.9589873 60.3788277,73.9986835 60.5542515,74.0391241 C60.7299238,74.0783241 60.8668338,74.0996608 60.9649817,74.0996608 L62.0177729,74.0391241 L61.8726631,76.6665165 L61.7998598,81.2906278 L61.8726631,83.8344101 L60.9662241,83.8344101 L60.0386646,83.8344101 C60.1129588,83.4228101 60.1591753,83.1002785 60.1775625,82.866319 C60.1959497,82.6321114 60.2053918,82.0962127 60.2053918,81.2593671 L60.2053918,75.9611646 C60.2053918,75.3940051 60.1887439,74.9682633 60.1559451,74.6841873 C60.1224009,74.3998633 60.0975534,74.1450633 60.0809055,73.9178025 Z M61.0452393,71.5782076 C60.7560137,71.5782076 60.5112652,71.476238 60.3114909,71.2737873 C60.1122134,71.0708405 60.0120777,70.8224911 60.0120777,70.5289873 C60.0120777,70.2347392 60.1122134,69.9861418 60.3114909,69.7836911 C60.5112652,69.5802481 60.7560137,69.4787747 61.0452393,69.4787747 C61.3344649,69.4787747 61.5787165,69.5802481 61.7784909,69.7836911 C61.9782652,69.9861418 62.077904,70.2347392 62.077904,70.5289873 C62.077904,70.8224911 61.9782652,71.0708405 61.7784909,71.2737873 C61.5787165,71.476238 61.3344649,71.5782076 61.0452393,71.5782076 L61.0452393,71.5782076 Z" id="Fill-9" fill="#853324"></path>
                <path d="M67.3378841,71.4685468 L67.1522729,74.2440557 L69.443218,74.208081 C69.386814,74.4323646 69.3589848,74.5720456 69.3589848,74.6278684 C69.3589848,74.7129671 69.386814,74.8454532 69.443218,75.0280557 L67.1883018,75.0280557 L67.1522729,76.770719 L67.1522729,80.2560456 C67.1522729,81.4744709 67.2606082,82.2961823 67.4782729,82.7229165 C67.6949436,83.150643 68.1118857,83.3635139 68.7288506,83.3635139 C69.0227973,83.3635139 69.2335046,83.3444101 69.3592332,83.3052101 C69.4852104,83.2660101 69.5975213,83.2330127 69.6959177,83.2072101 L69.6959177,83.6897671 C68.9803079,83.9227342 68.3911723,84.0393418 67.9285107,84.0393418 C67.171157,84.0393418 66.5785427,83.8041418 66.1509162,83.3344861 C65.7230412,82.8650785 65.5091037,82.2232405 65.5091037,81.4102127 L65.6542134,76.0465114 L65.6542134,75.562962 L65.6542134,75.3103949 L65.6542134,75.0156506 L64.2644893,75.0280557 C64.3067302,74.9159139 64.3278506,74.7824354 64.3278506,74.6278684 C64.3278506,74.4740456 64.3067302,74.3341165 64.2644893,74.208081 L65.6542134,74.208081 L65.6542134,74.0835342 C65.6542134,73.3806633 65.6057607,72.6775443 65.5091037,71.9739291 L67.3150244,71.3003342 L67.3378841,71.4685468" id="Fill-10" fill="#853324"></path>
                <path d="M75.2165488,81.5007696 C75.749529,80.3892759 76.2685945,79.1939241 76.7737454,77.9147139 C77.2788963,76.636 77.7559695,75.3428962 78.2054619,74.0361468 C78.2894466,74.0100962 78.4193994,73.9830532 78.5950716,73.9577468 C78.770247,73.9314481 78.8654131,73.9178025 78.8790793,73.9178025 C79.131779,73.9178025 79.3628613,73.9577468 79.5735686,74.0361468 L77.8896494,77.5869722 L76.9424604,79.6670532 L75.9950229,81.7260456 L75.0058415,83.9115696 L74.1217652,85.9916506 C73.9391357,86.411438 73.7709177,86.8141063 73.6166143,87.1994076 C73.461814,87.5852051 73.3634177,87.8824304 73.3216738,88.0923241 L72.6271845,88.0923241 L72.2480107,88.0923241 L71.8690854,88.0923241 C72.8093171,86.7505924 73.5882881,85.3098684 74.206247,83.7706481 L74.0797729,83.473919 L70.1851662,74.1726025 L70.0589405,73.9178025 L71.1534756,73.9178025 L71.658875,73.9178025 C71.8131784,73.9701519 71.9324466,74.0100962 72.0166799,74.0361468 C72.3953567,75.3111392 72.8796357,76.6491494 73.4692683,78.0504253 C74.058404,79.4519494 74.577718,80.6641722 75.0267134,81.6873418 L75.1531875,81.6263089 L75.2165488,81.5007696" id="Fill-11" fill="#853324"></path>
                <path d="M83.7253476,69.6226734 L85.1759482,72.4403595 L86.5855503,75.1528506 C87.0479634,76.0777722 87.5148491,76.9848304 87.983971,77.8755139 C88.4540869,78.7652051 88.9756372,79.6658127 89.5511067,80.5768405 L89.6355884,80.5768405 L89.7404451,80.4091241 C90.1471997,79.7655494 90.6098613,78.9577316 91.1284299,77.9849266 C91.64675,77.0123696 92.1449436,76.0857114 92.6217683,75.2039595 L94.1364756,72.4331646 L95.6924299,69.6837063 L95.818904,69.4547089 L96.0971966,69.4547089 L96.1175716,69.6837063 L96.3489024,71.8918076 L96.6224741,74.4780152 L96.8538049,76.7064608 L97.0856326,78.7250127 L97.4220686,81.4372557 L97.7157668,83.6029316 L97.7582561,83.8344101 L97.3251631,83.8344101 L96.8920701,83.8344101 L95.818904,83.8344101 C95.818904,82.6177215 95.7731845,81.5608101 95.6812485,80.6629316 C95.589561,79.7655494 95.4096646,78.2057367 95.1415595,75.9859747 L94.845128,73.3977823 L94.8026387,73.1218937 C94.5628598,73.4751899 94.3650732,73.7905266 94.2095274,74.0664152 C94.0542302,74.3428 93.7508415,74.9047494 93.2996098,75.7542481 L91.9228064,78.3647696 L90.6108552,80.8698481 C90.5263735,81.0397975 90.3320655,81.4325418 90.0286768,82.048081 C89.7247912,82.6633722 89.4882424,83.1905873 89.3190305,83.6289823 L89.0658338,83.8344101 L87.8232073,81.3330532 L85.2549634,76.3722684 L83.843622,73.8292304 L83.7173963,73.6193367 L83.6751555,73.8714076 L83.359343,76.4139494 L83.0646509,79.0845114 C82.9806662,79.9106886 82.8964329,80.7619241 82.8121997,81.6374734 C82.7279665,82.5137671 82.6862226,83.2459139 82.6862226,83.8344101 L82.0126052,83.8344101 L81.2125137,83.8344101 L82.6479573,74.416238 L83.3024421,69.4547089 L83.6408659,69.4547089 L83.7253476,69.6226734" id="Fill-12" fill="#853324"></path>
                <path d="M101.823814,78.1166684 L104.624134,78.1638076 L105.579026,78.1638076 C106.102564,78.1638076 106.632562,78.1434633 107.170512,78.101038 L107.403334,78.0804456 C107.403334,77.0962278 107.209026,76.2678177 106.82041,75.5934785 C106.4308,74.918643 105.763146,74.5819696 104.815212,74.5819696 C103.952505,74.5819696 103.238137,74.9040051 102.672607,75.5498127 C102.106579,76.1946278 101.823814,77.0503291 101.823814,78.1166684 Z M104.982933,84.1120354 C103.410828,84.1120354 102.193297,83.6590025 101.330093,82.7549215 C100.466889,81.8500962 100.035784,80.5842835 100.035784,78.9577316 C100.035784,77.4013924 100.463907,76.1742835 101.320154,75.2766532 C102.175655,74.3787747 103.354921,73.9302076 104.856459,73.9302076 C106.21736,73.9302076 107.259715,74.3127797 107.98253,75.0769316 C108.705346,75.8415797 109.06663,76.9237975 109.06663,78.326562 L109.045261,78.936643 C108.510541,78.936643 107.947495,78.9299443 107.355875,78.9160506 C106.764752,78.9031494 106.180834,78.8895038 105.603377,78.8763544 L102.09838,78.936643 L101.823814,78.936643 L101.823814,79.2098025 C101.823814,80.5001772 102.132918,81.5034987 102.750131,82.2185266 C103.367841,82.9338025 104.245209,83.2913165 105.381736,83.2913165 C106.63132,83.2913165 107.697777,82.8047899 108.582351,81.8319848 L108.708825,81.8319848 L108.540607,82.9067595 C107.950726,83.3086835 107.371529,83.6096304 106.803514,83.8105924 C106.235002,84.0110582 105.628473,84.1120354 104.982933,84.1120354 L104.982933,84.1120354 Z" id="Fill-13" fill="#853324"></path>
                <path d="M115.868649,74.6903899 C114.858596,74.6903899 114.087328,75.0543544 113.554348,75.7822835 C113.021616,76.5107089 112.75525,77.5676203 112.75525,78.953762 C112.75525,80.1295139 112.968939,81.144 113.397311,81.9984608 C113.824689,82.8521772 114.57111,83.2789114 115.63707,83.2789114 C116.647123,83.2789114 117.406962,82.8276152 117.919567,81.9247747 C118.431178,81.0219342 118.687854,79.9543544 118.687854,78.7222835 C118.687854,77.4760709 118.434409,76.4925975 117.930252,75.7716152 C117.425846,75.0506329 116.738066,74.6903899 115.868649,74.6903899 Z M120.161314,83.4962481 L120.161314,83.8344101 L119.402966,83.8344101 L118.665491,83.8344101 L118.687854,81.8562987 C118.125553,82.6402987 117.617421,83.1997671 117.160723,83.5354481 C116.705018,83.8716253 116.069418,84.0393418 115.255909,84.0393418 C113.908177,84.0393418 112.848925,83.5949924 112.076663,82.7050532 C111.305395,81.8151139 110.919015,80.5857722 110.919015,79.0160354 C110.919015,77.4748304 111.332727,76.2276253 112.160896,75.2751646 C112.989066,74.3227038 114.076146,73.8461013 115.424375,73.8461013 C116.139736,73.8461013 116.761422,74.0105924 117.287942,74.3388304 C117.814213,74.6678127 118.272899,75.1751797 118.666236,75.8606835 L118.687854,73.9302076 L118.602378,68.3692658 C118.742767,68.3851443 118.900549,68.3953165 119.076718,68.3987899 C119.251396,68.4032557 119.394767,68.4052405 119.507823,68.4052405 L120.371027,68.4052405 L120.245547,70.920243 L120.161314,73.4146532 L120.161314,76.0556911 L120.136963,79.9749468 L120.161314,83.4962481 L120.161314,83.4962481 Z" id="Fill-14" fill="#853324"></path>
                <path d="M123.02102,73.9178025 C123.160912,73.9589873 123.319191,73.9986835 123.494614,74.0391241 C123.670038,74.0783241 123.8067,74.0996608 123.904848,74.0996608 L124.958384,74.0391241 L124.812777,76.6665165 L124.740471,81.2906278 L124.812777,83.8344101 L123.906587,83.8344101 L122.979027,83.8344101 C123.05357,83.4228101 123.099538,83.1002785 123.117925,82.866319 C123.135816,82.6321114 123.145755,82.0962127 123.145755,81.2593671 L123.145755,75.9611646 C123.145755,75.3940051 123.12861,74.9682633 123.095811,74.6841873 C123.062764,74.3998633 123.037916,74.1450633 123.02102,73.9178025 Z M123.985354,71.5782076 C123.696377,71.5782076 123.451628,71.476238 123.251854,71.2737873 C123.052328,71.0708405 122.951944,70.8224911 122.951944,70.5289873 C122.951944,70.2347392 123.052328,69.9861418 123.251854,69.7836911 C123.451628,69.5802481 123.696377,69.4787747 123.985354,69.4787747 C124.274331,69.4787747 124.518831,69.5802481 124.718605,69.7836911 C124.91838,69.9861418 125.018764,70.2347392 125.018764,70.5289873 C125.018764,70.8224911 124.91838,71.0708405 124.718605,71.2737873 C124.518831,71.476238 124.274331,71.5782076 123.985354,71.5782076 L123.985354,71.5782076 Z" id="Fill-15" fill="#853324"></path>
                <path d="M135.432128,76.0532101 C135.208003,75.6264759 134.86287,75.2687139 134.399712,74.9794278 C133.936056,74.6903899 133.465444,74.5457468 132.988122,74.5457468 C131.850352,74.5457468 130.944659,74.9310481 130.270047,75.7023949 C129.595436,76.4734937 129.258503,77.5108051 129.258503,78.8145772 C129.258503,80.146881 129.609102,81.229843 130.310052,82.0644557 C131.011498,82.8983241 131.929616,83.3156304 133.066143,83.3156304 C133.627201,83.3156304 134.138812,83.2136608 134.601226,83.0082329 C135.064384,82.8047899 135.513131,82.4758076 135.947963,82.0252557 L136.116678,82.0669367 L136.05282,82.9948354 C135.141163,83.7393873 134.003393,84.1120354 132.642989,84.1120354 C131.042806,84.1120354 129.772599,83.6488304 128.832616,82.724157 C127.892881,81.7987392 127.422268,80.5373924 127.422268,78.9391241 C127.422268,77.4118127 127.923941,76.1891696 128.927782,75.2711949 C129.93063,74.3527241 131.260471,73.8939848 132.916064,73.8939848 C134.053337,73.8939848 135.105631,74.163919 136.074189,74.7035392 L135.637369,76.0532101 L135.432128,76.0532101" id="Fill-16" fill="#853324"></path>
                <path d="M138.093302,73.9178025 C138.233691,73.9589873 138.390976,73.9986835 138.566399,74.0391241 C138.741823,74.0783241 138.878982,74.0996608 138.97713,74.0996608 L140.029672,74.0391241 L139.884562,76.6665165 L139.812008,81.2906278 L139.884562,83.8344101 L138.978869,83.8344101 L138.051309,83.8344101 C138.125107,83.4228101 138.171323,83.1002785 138.189462,82.866319 C138.208098,82.6321114 138.217291,82.0962127 138.217291,81.2593671 L138.217291,75.9611646 C138.217291,75.3940051 138.20114,74.9682633 138.168093,74.6841873 C138.134549,74.3998633 138.110198,74.1450633 138.093302,73.9178025 Z M139.057636,71.5782076 C138.767913,71.5782076 138.523413,71.476238 138.324384,71.2737873 C138.123616,71.0708405 138.023977,70.8224911 138.023977,70.5289873 C138.023977,70.2347392 138.123616,69.9861418 138.324384,69.7836911 C138.523413,69.5802481 138.767913,69.4787747 139.057636,69.4787747 C139.345619,69.4787747 139.591113,69.5802481 139.790887,69.7836911 C139.989916,69.9861418 140.090549,70.2347392 140.090549,70.5289873 C140.090549,70.8224911 139.989916,71.0708405 139.790887,71.2737873 C139.591113,71.476238 139.345619,71.5782076 139.057636,71.5782076 L139.057636,71.5782076 Z" id="Fill-17" fill="#853324"></path>
                <path d="M143.098843,73.9178025 L143.552559,73.9178025 L143.984907,73.9178025 L144.365323,73.9178025 L144.725116,73.9178025 L144.657034,75.6187848 L144.717413,75.896162 C145.164421,75.1950278 145.645718,74.6903899 146.162547,74.3815038 C146.679128,74.0723696 147.307026,73.9178025 148.047235,73.9178025 C149.121892,73.9178025 149.953291,74.2192456 150.5387,74.8223797 C151.125848,75.4242734 151.418552,76.2864253 151.418552,77.4073468 L151.338046,80.9390684 L151.338046,83.8344101 L150.462418,83.8344101 L149.587038,83.8344101 C149.644933,83.2595595 149.695622,82.4787848 149.738608,81.4903494 C149.781346,80.5026582 149.80346,79.5186886 149.80346,78.5379443 C149.80346,77.1220304 149.597474,76.1698177 149.186247,75.6793215 C148.774523,75.1890734 148.18489,74.9434532 147.416852,74.9434532 C146.314614,74.9434532 145.589314,75.2865772 145.240454,75.9735696 C144.891843,76.6603139 144.717413,77.6194734 144.717413,78.853281 L144.657034,81.6692304 L144.717413,83.8344101 L143.878559,83.8344101 L142.97709,83.8344101 C143.046415,83.3238177 143.097352,82.3765671 143.13189,80.9936506 C143.165434,79.6104861 143.182828,78.3794076 143.182828,77.3014076 L143.098843,73.9178025" id="Fill-18" fill="#853324"></path>
                <path d="M155.66997,78.1166684 L158.471035,78.1638076 L159.426175,78.1638076 C159.948968,78.1638076 160.479463,78.1434633 161.016668,78.101038 L161.250235,78.0804456 C161.250235,77.0962278 161.05543,76.2678177 160.666566,75.5934785 C160.27795,74.918643 159.60955,74.5819696 158.661616,74.5819696 C157.798909,74.5819696 157.085038,74.9040051 156.519011,75.5498127 C155.95348,76.1946278 155.66997,77.0503291 155.66997,78.1166684 Z M158.829088,84.1120354 C157.256983,84.1120354 156.040198,83.6590025 155.176994,82.7549215 C154.31379,81.8500962 153.882684,80.5842835 153.882684,78.9577316 C153.882684,77.4013924 154.310063,76.1742835 155.166309,75.2766532 C156.022059,74.3787747 157.201822,73.9302076 158.702863,73.9302076 C160.064509,73.9302076 161.10587,74.3127797 161.828934,75.0769316 C162.551502,75.8415797 162.913034,76.9237975 162.913034,78.326562 L162.891913,78.936643 C162.357442,78.936643 161.794645,78.9299443 161.202776,78.9160506 C160.611901,78.9031494 160.026989,78.8895038 159.449532,78.8763544 L155.944535,78.936643 L155.66997,78.936643 L155.66997,79.2098025 C155.66997,80.5001772 155.979073,81.5034987 156.597032,82.2185266 C157.213997,82.9338025 158.092358,83.2913165 159.228886,83.2913165 C160.477476,83.2913165 161.544181,82.8047899 162.428755,81.8319848 L162.555229,81.8319848 L162.386762,82.9067595 C161.797875,83.3086835 161.218678,83.6096304 160.649918,83.8105924 C160.081902,84.0110582 159.474628,84.1120354 158.829088,84.1120354 L158.829088,84.1120354 Z" id="Fill-19" fill="#853324"></path>
                <path d="M53.6737134,34.9656557 L53.6737134,35.1946532 C53.5750686,35.4119899 53.7030335,35.5903747 53.9579695,35.5903747 C54.2134024,35.5903747 54.4213765,35.3792405 54.4208796,35.1212152 L54.4126799,31.8636456 C54.4119345,31.6061165 54.6226418,31.3949823 54.8810564,31.3949823 L56.8559405,31.3949823 C57.1146037,31.3949823 57.3260564,31.6061165 57.3260564,31.8636456 L57.3260564,35.0777975 C57.3260564,35.3358228 57.5372607,35.5467089 57.7956753,35.5467089 L59.5451921,35.5467089 C59.8031098,35.5467089 60.0150595,35.3358228 60.0150595,35.0777975 L60.0150595,30.6675494 C60.0150595,30.4095241 60.2262637,30.1981418 60.4846784,30.1981418 L63.1364101,30.1981418 C63.3948247,30.1981418 63.606029,30.4095241 63.606029,30.6675494 L63.606029,33.3716051 C63.606029,33.6296304 63.8172332,33.8405165 64.0758963,33.8405165 L64.7273994,33.8405165 C64.9860625,33.8405165 65.1972668,33.6296304 65.1972668,33.3716051 L65.1972668,21.694719 C65.1972668,21.4366937 65.408471,21.2258076 65.6668857,21.2258076 L68.0209436,21.2258076 C68.2793582,21.2258076 68.490314,21.4366937 68.490314,21.694719 L68.490314,26.8847494 C68.490314,27.1427747 68.7020152,27.3544051 68.9604299,27.3544051 L69.5863399,27.3544051 C69.845003,27.3544051 70.0562073,27.1427747 70.0562073,26.8847494 L70.0562073,24.0655747 C70.0562073,23.8075494 70.2679085,23.5964152 70.5258262,23.5964152 L74.3426601,23.5964152 C74.6010747,23.5964152 74.812279,23.8075494 74.812279,24.0655747 L74.812279,28.9678076 C74.812279,29.2258329 75.0239802,29.4369671 75.2823948,29.4369671 L75.6364726,29.4369671 C75.8946387,29.4369671 76.1063399,29.2258329 76.1063399,28.9678076 L76.1063399,14.7196 C76.1063399,14.4615747 76.3177927,14.2509367 76.5762073,14.2509367 L79.9465305,14.2509367 C80.2046966,14.2509367 80.4161494,14.4615747 80.4161494,14.7196 L80.4161494,28.3624405 C80.4161494,28.620962 80.6276021,28.8316 80.8860168,28.8316 L81.8138247,28.8316 C82.0722393,28.8316 82.2839405,28.620962 82.2839405,28.3624405 L82.2839405,24.8423797 C82.2839405,24.5843544 82.4956418,24.3732203 82.753311,24.3732203 L84.7468308,24.3732203 C85.0052454,24.3732203 85.2166982,24.5843544 85.2166982,24.8423797 L85.2166982,26.5282278 C85.2166982,26.7867494 85.4281509,26.9973873 85.6865655,26.9973873 L86.5547393,26.9973873 C86.8129055,26.9973873 87.0248552,26.7867494 87.0248552,26.5282278 L87.0248552,20.5313722 C87.0248552,20.273843 87.2360595,20.0627089 87.4944741,20.0627089 L89.715846,20.0627089 C89.9742607,20.0627089 90.1859619,20.273843 90.1859619,20.5313722 L90.1859619,31.2156051 C90.1859619,31.4736304 90.3974146,31.6847646 90.6558293,31.6847646 L91.8398155,31.6847646 C92.0979817,31.6847646 92.3094345,31.4736304 92.3094345,31.2156051 L92.3094345,25.5454987 C92.3094345,25.2869772 92.5213841,25.075843 92.7797988,25.075843 L96.4077912,25.075843 C96.6667027,25.075843 96.8774101,25.2869772 96.8774101,25.5454987 L96.8774101,28.7477418 C96.8774101,29.0057671 97.0893598,29.2169013 97.3475259,29.2169013 L98.7673155,29.2169013 C99.0257302,29.2169013 99.2371829,29.0057671 99.2371829,28.7477418 L99.2371829,27.0618937 C99.2371829,26.8038684 99.4488841,26.5924861 99.7065534,26.5924861 L101.497814,26.5924861 C101.756229,26.5924861 101.967681,26.8038684 101.967681,27.0618937 L101.967681,33.0304658 C101.967681,33.2879949 102.179383,33.4991291 102.437797,33.4991291 L104.658424,33.4991291 C104.916838,33.4991291 105.128291,33.2879949 105.128291,33.0304658 L105.128291,31.6924557 C105.128291,31.4349266 105.339744,31.2235443 105.598159,31.2235443 L107.387431,31.2235443 C107.646591,31.2235443 107.858293,31.4349266 107.858293,31.6924557 L107.858293,33.3825215 C107.858293,33.6405468 108.00713,33.8018127 108.190256,33.7405316 L108.376861,33.7405316 C108.937174,33.7405316 109.294979,34.204481 109.294979,34.204481 C109.452264,34.4089165 109.753913,34.4550633 109.965863,34.307443 C109.965863,34.307443 110.18477,34.1543646 110.579349,34.1543646 C110.857393,34.1543646 111.072325,34.2444253 111.197059,34.3143899 L111.197059,21.4332203 C111.197059,20.4485063 110.389514,19.6421772 109.402072,19.6421772 L93.6052348,19.6421772 C92.6180412,19.6421772 91.8112409,18.8351038 91.8112409,17.8498937 L91.8112409,2.07635949 C91.8112409,1.09114937 91.0036951,0.284572152 90.0160046,0.284572152 L72.8967805,0.284572152 C71.9098354,0.284572152 71.1022896,1.09114937 71.1022896,2.07635949 L71.1022896,17.8498937 C71.1022896,18.8351038 70.2947439,19.6421772 69.3075503,19.6421772 L53.5104649,19.6421772 C52.5235198,19.6421772 51.7159741,20.4485063 51.7159741,21.4332203 L51.7159741,33.9859038 C51.8759924,33.8658228 52.1115473,33.7405316 52.4025122,33.7405316 C53.1042073,33.7405316 53.6737134,34.2888354 53.6737134,34.9656557" id="Fill-20" fill="#853324"></path>
                <path d="M53.5104649,40.3189367 L69.3075503,40.3189367 C70.2947439,40.3189367 71.1022896,41.1252658 71.1022896,42.1107241 L71.1022896,57.8842582 C71.1022896,58.8694684 71.9098354,59.6757975 72.8967805,59.6757975 L90.0160046,59.6757975 C91.0036951,59.6757975 91.8112409,58.8694684 91.8112409,57.8842582 L91.8112409,42.1107241 C91.8112409,41.1252658 92.6180412,40.3189367 93.6052348,40.3189367 L109.402072,40.3189367 C110.389514,40.3189367 111.197059,39.5123595 111.197059,38.5269013 L111.197059,34.3143899 C111.072325,34.2444253 110.857393,34.1543646 110.579349,34.1543646 C110.18477,34.1543646 109.965863,34.307443 109.965863,34.307443 C109.753913,34.4550633 109.452264,34.4089165 109.294979,34.204481 C109.294979,34.204481 108.937174,33.7405316 108.376861,33.7405316 L108.190256,33.7405316 C108.00713,33.8018127 107.858293,33.6405468 107.858293,33.3825215 L107.858293,31.6924557 C107.858293,31.4349266 107.646591,31.2235443 107.387431,31.2235443 L105.598159,31.2235443 C105.339744,31.2235443 105.128291,31.4349266 105.128291,31.6924557 L105.128291,33.0304658 C105.128291,33.2879949 104.916838,33.4991291 104.658424,33.4991291 L102.437797,33.4991291 C102.179383,33.4991291 101.967681,33.2879949 101.967681,33.0304658 L101.967681,27.0618937 C101.967681,26.8038684 101.756229,26.5924861 101.497814,26.5924861 L99.7065534,26.5924861 C99.4488841,26.5924861 99.2371829,26.8038684 99.2371829,27.0618937 L99.2371829,28.7477418 C99.2371829,29.0057671 99.0257302,29.2169013 98.7673155,29.2169013 L97.3475259,29.2169013 C97.0893598,29.2169013 96.8774101,29.0057671 96.8774101,28.7477418 L96.8774101,25.5454987 C96.8774101,25.2869772 96.6667027,25.075843 96.4077912,25.075843 L92.7797988,25.075843 C92.5213841,25.075843 92.3094345,25.2869772 92.3094345,25.5454987 L92.3094345,31.2156051 C92.3094345,31.4736304 92.0979817,31.6847646 91.8398155,31.6847646 L90.6558293,31.6847646 C90.3974146,31.6847646 90.1859619,31.4736304 90.1859619,31.2156051 L90.1859619,20.5313722 C90.1859619,20.273843 89.9742607,20.0627089 89.715846,20.0627089 L87.4944741,20.0627089 C87.2360595,20.0627089 87.0248552,20.273843 87.0248552,20.5313722 L87.0248552,26.5282278 C87.0248552,26.7867494 86.8129055,26.9973873 86.5547393,26.9973873 L85.6865655,26.9973873 C85.4281509,26.9973873 85.2166982,26.7867494 85.2166982,26.5282278 L85.2166982,24.8423797 C85.2166982,24.5843544 85.0052454,24.3732203 84.7468308,24.3732203 L82.753311,24.3732203 C82.4956418,24.3732203 82.2839405,24.5843544 82.2839405,24.8423797 L82.2839405,28.3624405 C82.2839405,28.620962 82.0722393,28.8316 81.8138247,28.8316 L80.8860168,28.8316 C80.6276021,28.8316 80.4161494,28.620962 80.4161494,28.3624405 L80.4161494,14.7196 C80.4161494,14.4615747 80.2046966,14.2509367 79.9465305,14.2509367 L76.5762073,14.2509367 C76.3177927,14.2509367 76.1063399,14.4615747 76.1063399,14.7196 L76.1063399,28.9678076 C76.1063399,29.2258329 75.8946387,29.4369671 75.6364726,29.4369671 L75.2823948,29.4369671 C75.0239802,29.4369671 74.812279,29.2258329 74.812279,28.9678076 L74.812279,24.0655747 C74.812279,23.8075494 74.6010747,23.5964152 74.3426601,23.5964152 L70.5258262,23.5964152 C70.2679085,23.5964152 70.0562073,23.8075494 70.0562073,24.0655747 L70.0562073,26.8847494 C70.0562073,27.1427747 69.845003,27.3544051 69.5863399,27.3544051 L68.9604299,27.3544051 C68.7020152,27.3544051 68.490314,27.1427747 68.490314,26.8847494 L68.490314,21.694719 C68.490314,21.4366937 68.2793582,21.2258076 68.0209436,21.2258076 L65.6668857,21.2258076 C65.408471,21.2258076 65.1972668,21.4366937 65.1972668,21.694719 L65.1972668,33.3716051 C65.1972668,33.6296304 64.9860625,33.8405165 64.7273994,33.8405165 L64.0758963,33.8405165 C63.8172332,33.8405165 63.606029,33.6296304 63.606029,33.3716051 L63.606029,30.6675494 C63.606029,30.4095241 63.3948247,30.1981418 63.1364101,30.1981418 L60.4846784,30.1981418 C60.2262637,30.1981418 60.0150595,30.4095241 60.0150595,30.6675494 L60.0150595,35.0777975 C60.0150595,35.3358228 59.8031098,35.5467089 59.5451921,35.5467089 L57.7956753,35.5467089 C57.5372607,35.5467089 57.3260564,35.3358228 57.3260564,35.0777975 L57.3260564,31.8636456 C57.3260564,31.6061165 57.1146037,31.3949823 56.8559405,31.3949823 L54.8810564,31.3949823 C54.6226418,31.3949823 54.4119345,31.6061165 54.4126799,31.8636456 L54.4208796,35.1212152 C54.4213765,35.3792405 54.2134024,35.5903747 53.9579695,35.5903747 C53.7030335,35.5903747 53.5750686,35.4119899 53.6737134,35.1946532 C53.6737134,35.1946532 53.6737134,35.1946532 53.6737134,34.9656557 C53.6737134,34.2888354 53.1042073,33.7405316 52.4025122,33.7405316 C52.1115473,33.7405316 51.8759924,33.8658228 51.7159741,33.9859038 L51.7159741,38.5269013 C51.7159741,39.5123595 52.5235198,40.3189367 53.5104649,40.3189367" id="Fill-21" fill="#DC3A2A"></path>
                <g id="Group-25" transform="translate(123.989329, 0.000000)" fill="#DC3A2A">
                    <path d="M0.443528963,0.390511392 C4.05089787,6.27993924 6.48347409,17.3963646 6.48347409,30.1405823 C6.48347409,42.8855443 4.05089787,54.0009772 0.443528963,59.8909013 C5.32781402,55.2536405 8.7898247,43.6824456 8.7898247,30.1405823 C8.7898247,16.5992152 5.32781402,5.02802025 0.443528963,0.390511392" id="Fill-22"></path>
                    <path d="M0.443528963,0.390511392 L0.196047256,0.541605063 C1.97389024,3.44215696 3.47865854,7.66806582 4.5324436,12.7536456 C5.58697409,17.8399696 6.19375152,23.786957 6.19350305,30.1405823 C6.19375152,36.4944557 5.58697409,42.4416911 4.5324436,47.5277671 C3.47865854,52.6133468 1.97389024,56.8390076 0.196047256,59.7398076 C0.120262195,59.8636101 0.148091463,60.0248759 0.261147866,60.1159291 C0.374204268,60.2072304 0.537949695,60.2005316 0.643303354,60.1005468 C3.14520427,57.7215038 5.24035061,53.6300658 6.72698018,48.4343291 C8.21162195,43.2385924 9.07954726,36.9360759 9.07954726,30.1405823 C9.07954726,23.3450886 8.21162195,17.0428203 6.72698018,11.8470835 C5.24035061,6.65159494 3.14520427,2.56015696 0.643303354,0.180617722 C0.537949695,0.0808810127 0.374204268,0.0741822785 0.261147866,0.165235443 C0.148091463,0.256536709 0.120262195,0.417802532 0.196047256,0.541605063 L0.443528963,0.390511392 L0.243754573,0.600405063 C2.62589024,2.85837468 4.70414024,6.87141266 6.16940091,12.0061165 C7.63689787,17.1405722 8.49985366,23.3944608 8.49985366,30.1405823 C8.49985366,36.8867038 7.63689787,43.1408405 6.16940091,48.2755443 C4.70414024,53.4102481 2.62589024,57.423038 0.243754573,59.6810076 L0.443528963,59.8909013 L0.690762195,60.0419949 C2.52053659,57.0528709 4.03574085,52.7758532 5.10021037,47.645119 C6.16393445,42.5146329 6.77344512,36.5314228 6.77344512,30.1405823 C6.77344512,23.7499899 6.16393445,17.7667797 5.10021037,12.6362937 C4.03574085,7.50555949 2.52053659,3.22829367 0.690762195,0.239417722 L0.443528963,0.390511392 L0.243754573,0.600405063 L0.443528963,0.390511392" id="Fill-24"></path>
                </g>
                <path d="M137.968816,50.4069823 C138.802948,48.4564101 139.510358,46.1061468 140.059986,43.4574177 C140.86952,39.5530481 141.333424,35.0016304 141.333424,30.1405823 C141.333424,25.2795342 140.86952,20.7283646 140.059986,16.824243 C139.510358,14.1755139 138.802948,11.8247544 137.968816,9.87443038 C139.049933,11.5674734 139.997122,13.7832658 140.737331,16.378157 C141.850502,20.2728506 142.505732,25.0197722 142.505483,30.1405823 C142.505732,35.2613924 141.850502,40.008562 140.737331,43.9032557 C139.997122,46.4981468 139.049933,48.7136911 137.968816,50.4069823" id="Fill-26" fill="#EB8F77"></path>
                <path d="M136.452369,53.0390886 C136.388014,53.0390886 136.32341,53.0177519 136.270236,52.9748304 C136.15718,52.8837772 136.129351,52.7222633 136.205136,52.5987089 C137.550134,50.4047494 138.692625,47.1995291 139.49222,43.3398177 C140.292808,39.4798582 140.75373,34.9646633 140.753482,30.1405823 C140.75373,25.3165013 140.292808,20.8013063 139.49222,16.9415949 C138.692625,13.0821316 137.550134,9.87666329 136.205136,7.6827038 C136.129351,7.55890127 136.15718,7.39763544 136.270236,7.30658228 C136.32341,7.26341266 136.388014,7.24232405 136.452369,7.24232405 C136.524675,7.24232405 136.596733,7.26911899 136.652392,7.32171646 C138.568387,9.14476456 140.162358,12.2636456 141.29491,16.2193722 C142.425226,20.1750987 143.085177,24.9701519 143.085425,30.1405823 C143.085177,35.3110127 142.425226,40.1060658 141.29491,44.0620405 C140.162358,48.0177671 138.568387,51.1366481 136.652392,52.9594481 C136.596733,53.0122937 136.524675,53.0390886 136.452369,53.0390886 M137.968816,9.87443038 C138.802948,11.8247544 139.510358,14.1755139 140.059986,16.824243 C140.86952,20.7283646 141.333424,25.2795342 141.333424,30.1405823 C141.333424,35.0016304 140.86952,39.5530481 140.059986,43.4574177 C139.510358,46.1061468 138.802948,48.4564101 137.968816,50.4069823 C139.049933,48.7136911 139.997122,46.4981468 140.737331,43.9032557 C141.850502,40.008562 142.505732,35.2613924 142.505483,30.1405823 C142.505732,25.0197722 141.850502,20.2728506 140.737331,16.378157 C139.997122,13.7832658 139.049933,11.5674734 137.968816,9.87443038 M136.452617,7.53161013 L136.252595,7.7415038 L136.452617,7.53161013" id="Fill-27" fill="#EB8F77"></path>
                <path d="M149.048343,43.1311646 C149.44168,42.0236405 149.783334,40.7761873 150.065602,39.4165924 C150.629393,36.6954177 150.952163,33.5256759 150.952163,30.1405823 C150.952163,26.7554886 150.629393,23.5859949 150.065602,20.8648203 C149.783334,19.5049772 149.44168,18.2575241 149.048343,17.15 C149.548524,18.134962 149.994538,19.2968203 150.365015,20.5968709 C151.136035,23.2952203 151.590745,26.5880203 151.590497,30.1405823 C151.590745,33.6931443 151.136035,36.9859443 150.365015,39.6842937 C149.994538,40.9845924 149.548773,42.1462025 149.048343,43.1311646" id="Fill-28" fill="#F4BFAE"></path>
                <path d="M147.471268,46.1485722 C147.406913,46.1485722 147.342309,46.1272354 147.289136,46.0843139 C147.176079,45.9930127 147.14825,45.8317468 147.224035,45.7079443 C148.151098,44.1962633 148.943486,41.975757 149.497587,39.2992405 C150.052681,36.6224759 150.37247,33.4887089 150.372221,30.1405823 C150.37247,26.7924557 150.052681,23.6589367 149.497587,20.9821722 C148.943486,18.3059038 148.151098,16.0851494 147.224035,14.5734684 C147.14825,14.4496658 147.176079,14.2884 147.289136,14.1973468 C147.342309,14.1541772 147.406913,14.1330886 147.471268,14.1330886 C147.543575,14.1330886 147.615384,14.1596354 147.671043,14.212481 C149.021508,15.498638 150.132194,17.6787038 150.922595,20.4380861 C151.711008,23.1977165 152.170439,26.5384 152.170439,30.1405823 C152.170439,33.7425165 151.711008,37.0836962 150.922595,39.8433266 C150.132194,42.6027089 149.021508,44.7827747 147.671043,46.0689316 C147.615384,46.1217772 147.543575,46.1485722 147.471268,46.1485722 M149.048343,17.15 C149.44168,18.2575241 149.783334,19.5049772 150.065602,20.8648203 C150.629393,23.5859949 150.952163,26.7554886 150.952163,30.1405823 C150.952163,33.5256759 150.629393,36.6954177 150.065602,39.4165924 C149.783334,40.7761873 149.44168,42.0236405 149.048343,43.1311646 C149.548773,42.1462025 149.994538,40.9845924 150.365015,39.6842937 C151.136035,36.9859443 151.590745,33.6931443 151.590497,30.1405823 C151.590745,26.5880203 151.136035,23.2952203 150.365015,20.5968709 C149.994538,19.2968203 149.548524,18.134962 149.048343,17.15 M147.471268,14.4223747 L147.271494,14.6322684 L147.471268,14.4223747" id="Fill-29" fill="#F4BFAE"></path>
                <g id="Group-33" transform="translate(29.817073, 0.000000)" fill="#DC3A2A">
                    <path d="M8.66310213,59.8909013 C5.05598171,54.0009772 2.62315701,42.8850481 2.62315701,30.1405823 C2.62315701,17.3958684 5.05598171,6.27993924 8.66310213,0.390511392 C3.77906555,5.02802025 0.317303354,16.5992152 0.317303354,30.1405823 C0.317303354,43.6824456 3.7785686,55.2536405 8.66310213,59.8909013" id="Fill-30"></path>
                    <path d="M8.66310213,59.8909013 L8.91058384,59.7398076 C7.13298933,56.8390076 5.62797256,52.6133468 4.57443598,47.527519 C3.51965701,42.441443 2.91287957,36.4942076 2.91312805,30.1405823 C2.91287957,23.7867089 3.51965701,17.8394734 4.57443598,12.7533975 C5.62797256,7.66781772 7.13298933,3.44215696 8.91058384,0.541605063 C8.9863689,0.417802532 8.95829116,0.256536709 8.84548323,0.165235443 C8.73242683,0.0741822785 8.5686814,0.0808810127 8.46332774,0.180617722 C5.96142683,2.56015696 3.86652896,6.65159494 2.37989939,11.8470835 C0.895257622,17.0428203 0.0275807927,23.3450886 0.0273323171,30.1405823 C0.0275807927,36.9360759 0.895257622,43.2385924 2.37965091,48.4343291 C3.86628049,53.6300658 5.96117835,57.7215038 8.46332774,60.1005468 C8.5686814,60.2005316 8.73242683,60.2072304 8.84548323,60.1159291 C8.95829116,60.0248759 8.9863689,59.8636101 8.91058384,59.7398076 L8.66310213,59.8909013 L8.86287652,59.6810076 C6.48049238,57.423038 4.40249085,53.4102481 2.93723018,48.2755443 C1.46998171,43.1408405 0.607025915,36.8867038 0.60727439,30.1405823 C0.607025915,23.3944608 1.46998171,17.1405722 2.93747866,12.0061165 C4.40273933,6.87141266 6.48074085,2.85837468 8.86287652,0.600405063 L8.66310213,0.390511392 L8.4158689,0.239417722 C6.58609451,3.22829367 5.07089024,7.50531139 4.00642073,12.6360456 C2.94294512,17.7665316 2.33318598,23.7497418 2.33318598,30.1405823 C2.33318598,36.5311747 2.94294512,42.5143848 4.00642073,47.6448709 C5.07089024,52.7758532 6.58609451,57.0528709 8.4158689,60.0419949 L8.66310213,59.8909013 L8.86287652,59.6810076 L8.66310213,59.8909013" id="Fill-32"></path>
                </g>
                <path d="M24.944218,50.4069823 C23.8633491,48.7139392 22.9159116,46.4981468 22.1757027,43.9032557 C21.0627805,40.008562 20.4075503,35.2613924 20.4075503,30.1405823 C20.4075503,25.0197722 21.0627805,20.2728506 22.1757027,16.378157 C22.9161601,13.7830177 23.8631006,11.5674734 24.944218,9.87418228 C24.1103338,11.8247544 23.4029238,14.1755139 22.8532957,16.824243 C22.0440107,20.7283646 21.5803552,25.2795342 21.5803552,30.1405823 C21.5803552,35.0016304 22.0440107,39.5530481 22.8532957,43.4574177 C23.4029238,46.1058987 24.1100854,48.4566582 24.944218,50.4069823" id="Fill-34" fill="#EB8F77"></path>
                <path d="M26.4606646,53.0390886 C26.3883582,53.0390886 26.3163003,53.0122937 26.2606418,52.9594481 C24.3446463,51.1366481 22.7506753,48.0177671 21.6181235,44.0620405 C20.4878079,40.1060658 19.8278567,35.3110127 19.8276082,30.1405823 C19.8278567,24.9701519 20.4878079,20.1750987 21.6181235,16.2193722 C22.7506753,12.2636456 24.3446463,9.14476456 26.2606418,7.32196456 C26.3163003,7.26911899 26.3883582,7.24232405 26.4606646,7.24232405 C26.5250198,7.24232405 26.589375,7.26341266 26.6427973,7.30658228 C26.7556052,7.39763544 26.7836829,7.55890127 26.7078979,7.6827038 C25.3628994,9.87666329 24.220657,13.0821316 23.4210625,16.9415949 C22.6207226,20.8013063 22.1600488,25.3165013 22.1602973,30.1405823 C22.1600488,34.9646633 22.6207226,39.4798582 23.4210625,43.3398177 C24.220657,47.1995291 25.3628994,50.4047494 26.7078979,52.5987089 L26.4604162,52.7495544 L26.6601905,52.5399089 L26.4604162,52.7495544 L26.7078979,52.5987089 C26.7836829,52.7222633 26.7556052,52.8837772 26.6427973,52.9748304 C26.589375,53.0177519 26.5250198,53.0390886 26.4606646,53.0390886 M24.944218,9.87418228 C23.8631006,11.5674734 22.9161601,13.7830177 22.1757027,16.378157 C21.0627805,20.2728506 20.4075503,25.0197722 20.4075503,30.1405823 C20.4075503,35.2613924 21.0627805,40.008562 22.1757027,43.9032557 C22.9159116,46.4981468 23.8633491,48.7139392 24.944218,50.4069823 C24.1100854,48.4566582 23.4029238,46.1058987 22.8532957,43.4574177 C22.0440107,39.5530481 21.5803552,35.0016304 21.5803552,30.1405823 C21.5803552,25.2795342 22.0440107,20.7283646 22.8532957,16.824243 C23.4029238,14.1755139 24.1103338,11.8247544 24.944218,9.87418228" id="Fill-35" fill="#EB8F77"></path>
                <path d="M13.8644421,43.1301722 C13.3645091,42.1457063 12.9187439,40.9845924 12.5482668,39.6852861 C11.777247,36.9871848 11.3222881,33.6946329 11.3225366,30.1425671 L11.3225366,30.1405823 C11.3222881,26.5880203 11.7769985,23.2952203 12.5482668,20.5968709 C12.9187439,19.2973165 13.3645091,18.1359544 13.8644421,17.1512405 C13.4713537,18.2585165 13.1296997,19.5054734 12.8476799,20.8648203 C12.2836402,23.5859949 11.9608704,26.7554886 11.9608704,30.1405823 C11.9608704,33.5256759 12.2836402,36.6954177 12.8476799,39.4165924 C13.1296997,40.7759392 13.4713537,42.0228962 13.8644421,43.1301722" id="Fill-36" fill="#F4BFAE"></path>
                <path d="M15.4420137,46.1485722 C15.3697073,46.1485722 15.2976494,46.1217772 15.2419909,46.0689316 C13.8920229,44.7830228 12.7813369,42.6032051 11.9906875,39.8440709 C11.2022744,37.0846886 10.742843,33.7442532 10.7425945,30.1425671 L10.7425945,30.1405823 C10.742843,26.5384 11.2022744,23.1977165 11.9906875,20.4380861 C12.7810884,17.6787038 13.8917744,15.498638 15.2419909,14.2127291 C15.2976494,14.1598835 15.3697073,14.1330886 15.4420137,14.1330886 C15.5063689,14.1330886 15.5709726,14.1541772 15.6241463,14.1973468 C15.7372027,14.2884 15.765032,14.4496658 15.689247,14.5734684 C14.7621845,16.0851494 13.9695473,18.3059038 13.4154466,20.9821722 C12.8606006,23.6589367 12.540564,26.7924557 12.5408125,30.1405823 C12.540564,33.4887089 12.8606006,36.6224759 13.4154466,39.2992405 C13.9695473,41.975757 14.7621845,44.1962633 15.689247,45.7079443 L15.4420137,45.859038 L15.6417881,45.6491443 L15.4420137,45.859038 L15.689247,45.7079443 C15.765032,45.8317468 15.7372027,45.9930127 15.6241463,46.0843139 C15.5709726,46.1272354 15.5063689,46.1485722 15.4420137,46.1485722 M13.8644421,17.1512405 C13.3645091,18.1359544 12.9187439,19.2973165 12.5482668,20.5968709 C11.7769985,23.2952203 11.3222881,26.5880203 11.3225366,30.1405823 L11.3225366,30.1425671 C11.3222881,33.6946329 11.777247,36.9871848 12.5482668,39.6852861 C12.9187439,40.9845924 13.3645091,42.1457063 13.8644421,43.1301722 C13.4713537,42.0228962 13.1296997,40.7759392 12.8476799,39.4165924 C12.2836402,36.6954177 11.9608704,33.5256759 11.9608704,30.1405823 C11.9608704,26.7554886 12.2836402,23.5859949 12.8476799,20.8648203 C13.1296997,19.5054734 13.4713537,18.2585165 13.8644421,17.1512405 M10.7425945,30.1405823 L10.7425945,30.1400861 L10.7425945,30.1405823" id="Fill-37" fill="#F4BFAE"></path>
                <path d="M24.9732896,96.698957 C25.5569588,96.698957 26.0325412,96.4870785 26.3992912,96.0630734 C26.7660412,95.6390684 26.9494162,95.0897722 26.9494162,94.4149367 C26.9494162,93.9333722 26.8937576,93.5441013 26.7829375,93.2478684 C26.6718689,92.9516354 26.4631494,92.6817013 26.156779,92.4383139 C25.8504085,92.1951747 25.458314,92.073357 24.9804954,92.073357 C24.4062683,92.073357 23.9356555,92.2854835 23.569154,92.7092405 C23.2021555,93.1334937 23.019029,93.6827899 23.019029,94.3573772 C23.019029,94.8391899 23.0791601,95.2316861 23.1999192,95.535362 C23.3204299,95.8387899 23.5351128,96.1087241 23.843968,96.3446684 C24.1528232,96.5811089 24.5292637,96.698957 24.9732896,96.698957 Z M27.6660198,94.3933519 C27.6660198,95.1116051 27.409096,95.7125063 26.895,96.1968 C26.3811524,96.6808456 25.7380976,96.9229924 24.9660838,96.9229924 C24.1408963,96.9229924 23.491878,96.6964759 23.019029,96.2436911 C22.5459314,95.7909063 22.3096311,95.1644506 22.3096311,94.3645722 C22.3096311,93.6321772 22.5615854,93.0285468 23.0659909,92.5539291 C23.5701479,92.0793114 24.2084817,91.8421266 24.9804954,91.8421266 C25.8441966,91.8421266 26.507875,92.0614481 26.9710335,92.4995949 C27.4344405,92.938238 27.6660198,93.5694076 27.6660198,94.3933519 L27.6660198,94.3933519 Z" id="Fill-38" fill="#853324"></path>
                <path d="M30.2283003,94.0023443 L30.2283003,95.9675544 C30.2283003,96.2228506 30.231282,96.3890785 30.2367485,96.466238 C30.2419665,96.5431494 30.2586143,96.6587646 30.2864436,96.8128354 C30.2186098,96.8031595 30.1584787,96.7959646 30.1053049,96.7910025 C30.0521311,96.7862886 29.992,96.7840557 29.9244146,96.7840557 L29.7000412,96.7840557 C29.6371768,96.7981975 29.5889726,96.8081215 29.5551799,96.8128354 C29.5743125,96.6684405 29.5914573,96.446638 29.6058689,96.1481722 C29.620529,95.8494582 29.6277348,95.4785468 29.6277348,95.035438 L29.6277348,92.7308253 L29.6277348,92.5033165 L29.6277348,92.3045873 C29.1039482,92.3383291 28.5804101,92.3695899 28.056872,92.3986177 C28.0760046,92.3261722 28.0859436,92.2589367 28.0859436,92.1961671 C28.0859436,92.1286835 28.0760046,92.0443291 28.056872,91.9431038 L28.1289299,91.9502987 C28.2012363,91.9602228 28.3093232,91.9674177 28.453439,91.9721316 C28.5975549,91.9770937 28.7660213,91.9795747 28.958093,91.9795747 L29.9244146,91.9865215 L31.7631341,91.9431038 C31.7340625,92.0205114 31.7196509,92.0974228 31.7196509,92.1745823 L31.7196509,92.2576962 C31.7196509,92.279281 31.729093,92.3261722 31.7484741,92.3986177 C31.5892012,92.3743038 31.3407256,92.357681 31.0027988,92.3480051 C30.6651204,92.3383291 30.4119238,92.3239392 30.2429604,92.3045873 L30.2283003,93.0920608 L30.2283003,94.0023443" id="Fill-39" fill="#853324"></path>
                <g id="Group-43" transform="translate(31.556402, 91.797468)" fill="#853324">
                    <path d="M2.37791159,2.20487595 L2.37791159,4.17008608 C2.37791159,4.42538228 2.38089329,4.59161013 2.38635976,4.66876962 C2.39182622,4.74568101 2.40822561,4.8612962 2.43605488,5.01536709 C2.36822104,5.00569114 2.30808994,4.9984962 2.25491616,4.99353418 C2.20174238,4.98882025 2.14161128,4.98658734 2.07402591,4.98658734 L1.84965244,4.98658734 C1.78678811,5.00072911 1.73858384,5.01065316 1.70479116,5.01536709 C1.72392378,4.87097215 1.7410686,4.64916962 1.75548018,4.3507038 C1.77014024,4.05198987 1.77734604,3.68107848 1.77734604,3.23796962 L1.77734604,0.933356962 L1.77734604,0.705848101 L1.77734604,0.507118987 C1.25355945,0.540860759 0.730021341,0.572121519 0.206483232,0.601149367 C0.225615854,0.528703797 0.235554878,0.461468354 0.235554878,0.398698734 C0.235554878,0.33121519 0.225615854,0.246860759 0.206483232,0.145635443 L0.278541159,0.15283038 C0.350847561,0.16275443 0.458934451,0.169949367 0.603050305,0.174663291 C0.747166159,0.179625316 0.915632622,0.182106329 1.10795274,0.182106329 L2.07402591,0.189053165 L3.91274543,0.145635443 C3.88367378,0.223043038 3.8692622,0.29995443 3.8692622,0.377113924 L3.8692622,0.460227848 C3.8692622,0.481812658 3.87870427,0.528703797 3.89808537,0.601149367 C3.7388125,0.576835443 3.49033689,0.560212658 3.15265854,0.550536709 C2.81473171,0.540860759 2.56153506,0.526470886 2.39257165,0.507118987 L2.37791159,1.29459241 L2.37791159,2.20487595" id="Fill-40"></path>
                    <polygon id="Fill-42" points="7.46669207 6.18764557 7.98774543 6.18764557 7.98774543 0.174663291 7.46669207 0.174663291"></polygon>
                </g>
                <path d="M46.087753,96.9157975 C45.2816982,96.9157975 44.6473399,96.694243 44.1839329,96.2508861 C43.7207744,95.8075291 43.4891951,95.1979443 43.4891951,94.4221316 C43.4891951,93.6272152 43.735186,93.0010076 44.2274162,92.5430127 C44.7196463,92.0852658 45.3952515,91.8565165 46.2542317,91.8565165 C46.5437058,91.8565165 46.8103201,91.8790937 47.0540747,91.9244962 C47.2978293,91.9701468 47.5256814,92.0403595 47.738128,92.1356304 C47.6658216,92.3122785 47.6173689,92.4847089 47.5935152,92.6526734 L47.5425777,92.6658228 C47.3688933,92.5010835 47.1673796,92.3733114 46.9382851,92.2822582 C46.7089421,92.1912051 46.4761204,92.1458025 46.2398201,92.1458025 C45.6074497,92.1458025 45.1129832,92.3447797 44.7559238,92.7437266 C44.3988643,93.1421772 44.2202104,93.6994127 44.2202104,94.4149367 C44.2202104,95.0922532 44.3914101,95.6298886 44.7343064,96.0288354 C45.0767058,96.4272861 45.5401128,96.6267595 46.1240305,96.6267595 C46.6932881,96.6267595 47.2168262,96.4292709 47.6946448,96.0340456 L47.7309223,96.0556304 L47.6295442,96.4821165 C47.2098689,96.7711544 46.6957729,96.9157975 46.087753,96.9157975" id="Fill-44" fill="#853324"></path>
                <path d="M50.0616235,96.6555392 C50.4089924,96.6555392 50.6865396,96.5108962 50.8940168,96.2218582 C51.1014939,95.9328203 51.2053567,95.545038 51.2053567,95.0582633 C51.2053567,94.6248304 51.1111845,94.2730228 50.9228399,94.0030886 C50.7347439,93.7334025 50.4862683,93.5984354 50.1774131,93.5984354 C49.8009726,93.5984354 49.5090137,93.741838 49.3015366,94.0283949 C49.0940595,94.3152 48.9901966,94.7186127 48.9901966,95.238881 C48.9901966,95.6437823 49.0903323,95.9812 49.2906037,96.2508861 C49.490875,96.5208203 49.7477988,96.6555392 50.0616235,96.6555392 Z M50.0472119,96.8798228 C49.5450427,96.8798228 49.139779,96.7183089 48.8309238,96.395281 C48.5220686,96.0727494 48.3677652,95.6437823 48.3677652,95.1088759 C48.3677652,94.5838937 48.5330015,94.163362 48.8634741,93.8477772 C49.1939466,93.5319443 49.6320091,93.3744 50.1774131,93.3744 C50.6696433,93.3744 51.0689436,93.5297114 51.375314,93.8405823 C51.6816845,94.1514532 51.8349939,94.5764506 51.8349939,95.1160709 C51.8349939,95.6174835 51.671,96.0365266 51.3427637,96.3739443 C51.0145274,96.7111139 50.5826768,96.8798228 50.0472119,96.8798228 L50.0472119,96.8798228 Z" id="Fill-45" fill="#853324"></path>
                <path d="M52.725282,93.4465975 C52.7637957,93.4513114 52.8157271,93.4562734 52.8808277,93.4609873 C52.9461768,93.4659494 52.995375,93.4684304 53.0291677,93.4684304 L53.1596174,93.4684304 C53.2078216,93.4587544 53.2488201,93.4513114 53.2826128,93.4465975 L53.2609954,93.9884506 L53.2609954,94.082481 C53.4157957,93.8415747 53.5827713,93.6681519 53.7619223,93.5622127 C53.9410732,93.4562734 54.1587378,93.4031797 54.4154131,93.4031797 C54.7881265,93.4031797 55.0761098,93.5068861 55.2793628,93.7140506 C55.4828643,93.9212152 55.5844909,94.2174481 55.5844909,94.6029975 L55.5554192,95.8172051 L55.5554192,96.8145722 C55.4361509,96.7954684 55.3360152,96.7857924 55.2550122,96.7857924 C55.1884207,96.7857924 55.0882851,96.7954684 54.9546052,96.8145722 C54.9739863,96.6170835 54.9908826,96.3483899 55.0055427,96.0087392 C55.0199543,95.6690886 55.0271601,95.3304304 55.0271601,94.9932608 C55.0271601,94.5067342 54.9555991,94.1789924 54.8127256,94.0102835 C54.6698521,93.8415747 54.4651082,93.7574684 54.1984939,93.7574684 C53.8158415,93.7574684 53.5636387,93.8753165 53.4426311,94.1115089 C53.321375,94.3477013 53.2609954,94.6779241 53.2609954,95.101681 L53.2609954,96.0702684 L53.2826128,96.8145722 C53.1715442,96.7954684 53.0751357,96.7857924 52.9931387,96.7857924 C52.9061723,96.7857924 52.8023095,96.7954684 52.6817988,96.8145722 C52.7059009,96.6411494 52.7240396,96.3196101 52.7362149,95.8497063 C52.7481418,95.3800506 52.7543537,94.962 52.7543537,94.5958025 L52.725282,93.4465975" id="Fill-46" fill="#853324"></path>
                <path d="M56.6412576,93.4465975 C56.6797713,93.4513114 56.7317027,93.4562734 56.7968034,93.4609873 C56.861904,93.4659494 56.9113506,93.4684304 56.9451433,93.4684304 L57.075593,93.4684304 C57.1235488,93.4587544 57.1647957,93.4513114 57.1985884,93.4465975 L57.1767226,93.9884506 L57.1767226,94.082481 C57.3315229,93.8415747 57.4984985,93.6681519 57.6776494,93.5622127 C57.8570488,93.4562734 58.0747134,93.4031797 58.3313887,93.4031797 C58.7041021,93.4031797 58.9920854,93.5068861 59.1953384,93.7140506 C59.3988399,93.9212152 59.5004665,94.2174481 59.5004665,94.6029975 L59.4713948,95.8172051 L59.4713948,96.8145722 C59.3521265,96.7954684 59.2519909,96.7857924 59.1709878,96.7857924 C59.1043963,96.7857924 59.0040122,96.7954684 58.8705808,96.8145722 C58.8899619,96.6170835 58.9068582,96.3483899 58.9212698,96.0087392 C58.9356814,95.6690886 58.9431357,95.3304304 58.9431357,94.9932608 C58.9431357,94.5067342 58.8715747,94.1789924 58.7284527,94.0102835 C58.5855793,93.8415747 58.3810838,93.7574684 58.1144695,93.7574684 C57.7315686,93.7574684 57.4796143,93.8753165 57.3583582,94.1115089 C57.2373506,94.3477013 57.1767226,94.6779241 57.1767226,95.101681 L57.1767226,96.0702684 L57.1985884,96.8145722 C57.0875198,96.7954684 56.9911113,96.7857924 56.9091143,96.7857924 C56.8221479,96.7857924 56.7182851,96.7954684 56.5977744,96.8145722 C56.6218765,96.6411494 56.6400152,96.3196101 56.6521905,95.8497063 C56.6641174,95.3800506 56.6700808,94.962 56.6700808,94.5958025 L56.6412576,93.4465975" id="Fill-47" fill="#853324"></path>
                <path d="M60.9769085,94.8416709 L61.9325457,94.8558127 L62.2582973,94.8558127 C62.4367027,94.8558127 62.617593,94.8513468 62.800968,94.8416709 L62.8807287,94.8416709 C62.8807287,94.5002835 62.8141372,94.2124861 62.6816997,93.9782785 C62.5487652,93.744319 62.3209131,93.6272152 61.9976463,93.6272152 C61.7032027,93.6272152 61.4594482,93.7381165 61.2663826,93.9596709 C61.0733171,94.1814734 60.9769085,94.4752253 60.9769085,94.8416709 Z M62.0483354,96.9086025 C61.5079009,96.9086025 61.088971,96.753043 60.7922912,96.4414278 C60.4956113,96.1300608 60.3472713,95.6943949 60.3472713,95.1341823 C60.3472713,94.5982835 60.4943689,94.1757671 60.788564,93.866881 C61.0830076,93.5577468 61.4882713,93.4031797 62.0048521,93.4031797 C62.4727317,93.4031797 62.8310335,93.5326886 63.0797576,93.7919544 C63.3282332,94.0514684 63.452471,94.4191544 63.452471,94.8947646 L63.4452652,95.101681 L62.8678079,95.101681 L62.2689817,95.101681 L60.9769085,95.101681 L60.9697027,95.1969519 C60.9697027,95.6467595 61.0755534,95.9960861 61.2872546,96.2456759 C61.4989558,96.4950177 61.7996113,96.6195646 62.189221,96.6195646 C62.6173445,96.6195646 62.9828521,96.4533367 63.2859924,96.120881 L63.3294756,96.1352709 L63.2715808,96.4967544 C63.0688247,96.6339544 62.8697957,96.7369165 62.6742454,96.8056405 C62.4789436,96.8741165 62.2702241,96.9086025 62.0483354,96.9086025 L62.0483354,96.9086025 Z" id="Fill-48" fill="#853324"></path>
                <path d="M66.839939,94.1549266 C66.7629116,94.0055696 66.6443887,93.8802785 66.4853643,93.7790532 C66.3260915,93.6778278 66.1645823,93.6272152 66.0005884,93.6272152 C65.6094878,93.6272152 65.2983963,93.7594532 65.0665686,94.0239291 C64.8349893,94.288157 64.7191997,94.6439342 64.7191997,95.0910127 C64.7191997,95.547519 64.8397104,95.9191747 65.0812287,96.2049873 C65.3224985,96.4908 65.6385595,96.6339544 66.0294116,96.6339544 C66.2222287,96.6339544 66.3983979,96.5992203 66.5576707,96.5292557 C66.7171921,96.4592911 66.8714954,96.3473975 67.0210777,96.1930785 L67.0787241,96.2077165 L67.0573552,96.5255342 C66.7435305,96.7808304 66.3529268,96.9086025 65.8845503,96.9086025 C65.3344253,96.9086025 64.8978537,96.7498177 64.5743384,96.4324962 C64.2510716,96.1154228 64.0895625,95.682238 64.0895625,95.1341823 C64.0895625,94.6101924 64.2620046,94.1906532 64.6071372,93.8755646 C64.9520213,93.5607241 65.4092165,93.4031797 65.9787226,93.4031797 C66.3698232,93.4031797 66.7313552,93.4972101 67.0648095,93.6852709 L66.9124939,94.1549266 L66.839939,94.1549266" id="Fill-49" fill="#853324"></path>
                <path d="M68.5991463,92.5648456 L68.5482088,93.5187949 L69.3229558,93.5187949 C69.3035747,93.5922329 69.2938841,93.6376354 69.2938841,93.6557468 C69.2938841,93.6835342 69.3035747,93.7269519 69.3229558,93.7862481 L68.5482088,93.7862481 L68.5482088,95.5904405 C68.5482088,96.0109722 68.5852317,96.2945519 68.6587805,96.4419241 C68.7323293,96.5892962 68.8734634,96.6629823 69.0824314,96.6629823 C69.1818216,96.6629823 69.2528857,96.6545468 69.2956235,96.6384203 C69.3383613,96.6222937 69.376378,96.6086481 69.4096738,96.5977316 L69.4096738,96.7642076 C69.1636829,96.8505468 68.9611753,96.8939646 68.801654,96.8939646 C68.541003,96.8939646 68.337253,96.8130835 68.1901555,96.6515696 C68.0428095,96.4895595 67.9692607,96.2687494 67.9692607,95.988643 L68.0201982,94.141281 L68.0201982,93.9748051 L68.0201982,93.8877215 L68.0201982,93.7862481 L67.5423796,93.7862481 C67.5565427,93.7495291 67.563997,93.7063595 67.563997,93.6557468 C67.563997,93.6056304 67.5565427,93.5599797 67.5423796,93.5187949 L68.0201982,93.5187949 L68.0201982,93.4753772 C68.0201982,93.229757 68.0030534,92.9838886 67.9692607,92.7382684 L68.5916921,92.507038 L68.5991463,92.5648456" id="Fill-50" fill="#853324"></path>
                <path d="M70.4013399,94.8416709 L71.3567287,94.8558127 L71.6824802,94.8558127 C71.8611341,94.8558127 72.0420244,94.8513468 72.2253994,94.8416709 L72.3051601,94.8416709 C72.3051601,94.5002835 72.2385686,94.2124861 72.1058826,93.9782785 C71.9731966,93.744319 71.7453445,93.6272152 71.4218293,93.6272152 C71.1273857,93.6272152 70.8838796,93.7381165 70.6910625,93.9596709 C70.4977485,94.1814734 70.4013399,94.4752253 70.4013399,94.8416709 Z M71.4725183,96.9086025 C70.9320838,96.9086025 70.5136509,96.753043 70.2167226,96.4414278 C69.9200427,96.1300608 69.7714543,95.6943949 69.7714543,95.1341823 C69.7714543,94.5982835 69.9185518,94.1757671 70.2132439,93.866881 C70.507439,93.5577468 70.9127027,93.4031797 71.4290351,93.4031797 C71.8971631,93.4031797 72.2554649,93.5326886 72.5039405,93.7919544 C72.7524162,94.0514684 72.876654,94.4191544 72.876654,94.8947646 L72.8696966,95.101681 L72.2922393,95.101681 L71.6934131,95.101681 L70.4013399,95.101681 L70.3938857,95.1969519 C70.3938857,95.6467595 70.4997363,95.9960861 70.711686,96.2456759 C70.9231387,96.4950177 71.2237942,96.6195646 71.613404,96.6195646 C72.0417759,96.6195646 72.4072835,96.4533367 72.7101753,96.120881 L72.7536585,96.1352709 L72.6960122,96.4967544 C72.4930076,96.6339544 72.2942271,96.7369165 72.0989253,96.8056405 C71.9031265,96.8741165 71.6946555,96.9086025 71.4725183,96.9086025 L71.4725183,96.9086025 Z" id="Fill-51" fill="#853324"></path>
                <g id="Group-55" transform="translate(73.300305, 91.301266)" fill="#853324">
                    <path d="M1.91475305,2.36936709 C1.56713567,2.36936709 1.30176372,2.49490633 1.11838872,2.74623291 C0.93501372,2.99706329 0.84332622,3.36202025 0.84332622,3.84011139 C0.84332622,4.24600506 0.916875,4.59632405 1.06422104,4.89082025 C1.2113186,5.18556456 1.46849085,5.33268861 1.83499238,5.33268861 C2.18260976,5.33268861 2.44425457,5.17688101 2.62042378,4.86551392 C2.79659299,4.55389873 2.88480183,4.18546835 2.88480183,3.76022278 C2.88480183,3.33051139 2.79783537,2.99135696 2.62415091,2.74251139 C2.45046646,2.49391392 2.21391768,2.36936709 1.91475305,2.36936709 Z M3.3914436,5.39769114 L3.3914436,5.51330633 C3.28484756,5.49420253 3.19912348,5.48452658 3.13451982,5.48452658 C3.09302439,5.48452658 3.00953659,5.49420253 2.88480183,5.51330633 L2.88480183,4.8412 C2.69173628,5.11113418 2.51656098,5.30366076 2.36002134,5.41952405 C2.20298476,5.53513924 1.9845747,5.59269873 1.70479116,5.59269873 C1.24163262,5.59269873 0.877118902,5.43962025 0.611746951,5.13296709 C0.346375,4.82631392 0.213689024,4.40255696 0.213689024,3.8619443 C0.213689024,3.33075949 0.355817073,2.9012962 0.640818598,2.57256203 C0.925323171,2.24432405 1.29952744,2.08032911 1.76268598,2.08032911 C2.00867683,2.08032911 2.22236585,2.1371443 2.4032561,2.25027848 C2.58439482,2.36341266 2.7424253,2.53807595 2.87759604,2.77402025 L2.88480183,2.10910886 L2.84827591,0.193767089 C2.89672866,0.203691139 2.95089634,0.20964557 3.01152439,0.211878481 C3.07165549,0.214359494 3.12110213,0.215351899 3.15961585,0.215351899 C3.26124238,0.215351899 3.3598872,0.208405063 3.45654421,0.193767089 L3.41579421,1.06137722 L3.3914436,1.9210481 L3.3914436,2.83182785 L3.3842378,4.18348354 L3.3914436,5.39769114 L3.3914436,5.39769114 Z" id="Fill-52"></path>
                    <polygon id="Fill-54" points="7.44482622 6.6838481 7.96612805 6.6838481 7.96612805 0.670865823 7.44482622 0.670865823"></polygon>
                </g>
                <path d="M86.7602287,92.1383595 C86.5092683,92.1383595 86.2993064,92.218 86.130343,92.3767848 C85.961628,92.5358177 85.8771463,92.7382684 85.8771463,92.9838886 C85.8771463,93.3309823 86.0699634,93.6103443 86.456343,93.8222228 C86.813154,93.9958937 87.1729466,94.1668354 87.5349756,94.3355443 C87.9255793,94.5764506 88.1211296,94.9017114 88.1211296,95.3113266 C88.1211296,95.7690734 87.958378,96.1496608 87.632378,96.4533367 C87.306875,96.7567646 86.8951509,96.9086025 86.3981997,96.9086025 C85.9253506,96.9086025 85.5225716,96.7761165 85.1893659,96.5108962 C85.2184375,96.409919 85.2497454,96.3014987 85.2835381,96.1858835 C85.3173308,96.0702684 85.3342271,95.9643291 85.3342271,95.8678177 L85.4065335,95.8678177 C85.5031905,96.0846582 85.6587363,96.2593215 85.8734192,96.3918076 C86.0881021,96.5242937 86.3186875,96.5907848 86.5646784,96.5907848 C86.8541524,96.5907848 87.093186,96.4942734 87.281282,96.3014987 C87.4696265,96.1087241 87.5637988,95.8655848 87.5637988,95.5713367 C87.5637988,95.2247392 87.3704848,94.9476101 86.9846021,94.7404456 C86.6228216,94.5717367 86.2607927,94.4005468 85.8990122,94.2271241 C85.5079116,93.9765418 85.3123613,93.6272152 85.3123613,93.1791443 C85.3123613,92.7841671 85.4549863,92.4636203 85.7397393,92.218 C86.0242439,91.9721316 86.3959634,91.8493215 86.8541524,91.8493215 C87.0713201,91.8493215 87.2584223,91.8733873 87.4152104,91.921519 C87.5719985,91.9698987 87.7422043,92.0589671 87.9255793,92.1889722 C87.877375,92.2949114 87.8373704,92.3973772 87.8060625,92.4961215 C87.7747546,92.5948658 87.7494101,92.6901367 87.7302774,92.7816861 L87.657971,92.7816861 C87.5901372,92.5891595 87.4743476,92.4336 87.3103537,92.3155038 C87.1461113,92.1976557 86.9629848,92.1383595 86.7602287,92.1383595" id="Fill-56" fill="#853324"></path>
                <path d="M89.2720686,93.4684304 L89.6050259,93.4465975 C89.5903659,93.5173063 89.5806753,93.6113367 89.5759543,93.7289367 C89.5712332,93.8467848 89.5687485,93.954957 89.5687485,94.0537013 C89.8197088,93.6200203 90.1911799,93.4031797 90.6834101,93.4031797 C91.2238445,93.4031797 91.5640076,93.6321772 91.7041479,94.0896759 C91.9439268,93.6321772 92.3370152,93.4031797 92.8834131,93.4031797 C93.2094131,93.4031797 93.464846,93.4937367 93.6494634,93.6748506 C93.8340808,93.8559646 93.9262652,94.1058025 93.9262652,94.4243646 L93.9262652,96.8145722 C93.8683704,96.8048962 93.8189238,96.7977013 93.7779253,96.7929873 C93.7369268,96.7880253 93.6849954,96.7857924 93.6223796,96.7857924 C93.5304436,96.7857924 93.4268293,96.7954684 93.3110396,96.8145722 C93.3304207,96.6748911 93.3470686,96.4617722 93.3617287,96.1749671 C93.3761402,95.8884101 93.3835945,95.6028456 93.3835945,95.3185215 L93.3835945,94.7692253 C93.3835945,94.4079899 93.3232149,94.1452506 93.2024558,93.9815038 C93.0819451,93.817757 92.8863948,93.7356354 92.6163018,93.7356354 C92.1094116,93.7356354 91.829628,94.0152456 91.7764543,94.5742177 L91.7401768,95.7740354 L91.7764543,96.8145722 C91.7180625,96.8048962 91.667622,96.7977013 91.6261265,96.7929873 C91.5846311,96.7880253 91.5299665,96.7857924 91.4616357,96.7857924 C91.3736753,96.7857924 91.2713034,96.7954684 91.1540229,96.8145722 C91.182846,96.5677114 91.2009848,96.2749519 91.2081905,95.9360456 C91.2153963,95.5971392 91.2191235,95.3621873 91.2191235,95.231438 C91.2191235,94.6796608 91.2012332,94.3300861 91.1657012,94.1824658 C91.1301692,94.0345975 91.0436997,93.9234481 90.9060442,93.8482734 C90.7686372,93.7733468 90.6240244,93.7356354 90.4724543,93.7356354 C90.1168857,93.7356354 89.8833186,93.8591899 89.7720015,94.1060506 C89.660436,94.3529114 89.6050259,94.6821418 89.6050259,95.0934937 L89.6050259,95.6673519 L89.6050259,96.2084608 L89.6050259,96.7490734 L89.6122317,96.8145722 C89.5622881,96.8048962 89.5061326,96.7977013 89.4435168,96.7929873 C89.3809009,96.7880253 89.3371692,96.7857924 89.3123216,96.7857924 L89.1396311,96.7857924 C89.0844695,96.8001823 89.0370107,96.8096101 88.9967576,96.8145722 L89.069064,95.1522937 C89.069064,94.8245519 89.0668277,94.4801873 89.0621067,94.1187038 C89.0573857,93.7574684 89.0524162,93.5622127 89.0474466,93.5331848 L89.0402409,93.4465975 C89.069064,93.4513114 89.1125473,93.4562734 89.1706905,93.4609873 C89.2285854,93.4659494 89.262378,93.4684304 89.2720686,93.4684304" id="Fill-57" fill="#853324"></path>
                <path d="M96.8796463,95.0366785 L96.3657988,95.153038 C95.9508445,95.2448354 95.6817454,95.3381215 95.55875,95.4324 C95.4355061,95.5266785 95.3738841,95.6879443 95.3738841,95.9152051 C95.3738841,96.1186481 95.4332698,96.2818987 95.5512957,96.4054532 C95.6695701,96.5290076 95.8228796,96.5907848 96.0109756,96.5907848 C96.1655274,96.5907848 96.3223155,96.5486076 96.4813399,96.4642532 C96.6408613,96.3798987 96.7663415,96.2558481 96.858029,96.0918532 L96.8796463,95.0366785 Z M96.2500091,93.3744 C96.6262012,93.3744 96.9159238,93.4706633 97.1186799,93.663438 C97.3211875,93.8562127 97.4225655,94.1330937 97.4225655,94.4945772 L97.3862881,95.6872 C97.3862881,96.0824253 97.4031845,96.3305266 97.4369771,96.4315038 C97.4707698,96.5327291 97.5527668,96.5833418 97.682968,96.5833418 C97.7025976,96.5833418 97.7483171,96.5761468 97.8206235,96.5615089 L97.8206235,96.7061519 C97.6325274,96.7783494 97.4804604,96.8145722 97.3646707,96.8145722 C97.0607851,96.8145722 96.8918216,96.6701772 96.858029,96.3808911 C96.5451982,96.7232709 96.1943506,96.8939646 95.8049893,96.8939646 C95.4827165,96.8939646 95.2337439,96.8182937 95.0583201,96.6664557 C94.8828963,96.5146177 94.794936,96.2992658 94.794936,96.0196557 C94.794936,95.4946734 95.0990701,95.1788405 95.7073384,95.0726532 C96.3156067,94.966962 96.699253,94.8582937 96.858029,94.7476405 C96.8724405,94.6367392 96.8796463,94.5645418 96.8796463,94.5308 C96.8796463,94.2705418 96.8073399,94.0608962 96.6624787,93.9021114 C96.5178659,93.7428304 96.3223155,93.663438 96.0763247,93.663438 C95.6564009,93.663438 95.3569878,93.8318987 95.1785823,94.1693165 L95.1062759,94.1693165 L95.1062759,93.7718582 C95.2896509,93.6515291 95.4755107,93.5550177 95.6636067,93.4825722 C95.8517027,93.4103747 96.047253,93.3744 96.2500091,93.3744 L96.2500091,93.3744 Z" id="Fill-58" fill="#853324"></path>
                <path d="M98.5441845,94.2705418 L98.5153613,93.5259899 L98.5153613,93.4465975 C98.6105274,93.4609873 98.7037058,93.4684304 98.7941509,93.4684304 L98.9014924,93.4684304 C98.9442302,93.4684304 99.0063491,93.4609873 99.0873521,93.4465975 L99.0582805,94.0249215 L99.0582805,94.1405367 C99.1941966,93.9782785 99.3301128,93.8160203 99.466029,93.653762 C99.6310168,93.4867899 99.8203552,93.4031797 100.034044,93.4031797 C100.107096,93.4031797 100.177166,93.4200506 100.245497,93.4537924 C100.226116,93.5116 100.211456,93.577843 100.202014,93.6525215 C100.192075,93.7274481 100.187354,93.800638 100.187354,93.8728354 L100.194808,94.0030886 L100.144119,94.0390633 C100.032056,93.9571899 99.9157698,93.9162532 99.7940168,93.9162532 C99.3035259,93.9162532 99.0582805,94.2963443 99.0582805,95.0555342 L99.0582805,95.6899291 L99.0873521,96.8145722 C98.9919375,96.7954684 98.9109345,96.7857924 98.8440945,96.7857924 C98.7725335,96.7857924 98.6632043,96.7954684 98.5153613,96.8145722 L98.5153613,96.7423747 L98.5441845,95.9616 L98.5441845,94.2705418" id="Fill-59" fill="#853324"></path>
                <path d="M101.68591,92.5648456 L101.635221,93.5187949 L102.40972,93.5187949 C102.390338,93.5922329 102.380896,93.6376354 102.380896,93.6557468 C102.380896,93.6835342 102.390338,93.7269519 102.40972,93.7862481 L101.635221,93.7862481 L101.635221,95.5904405 C101.635221,96.0109722 101.671995,96.2945519 101.745544,96.4419241 C101.819093,96.5892962 101.960227,96.6629823 102.169195,96.6629823 C102.268585,96.6629823 102.339898,96.6545468 102.382387,96.6384203 C102.425125,96.6222937 102.46339,96.6086481 102.496437,96.5977316 L102.496437,96.7642076 C102.250447,96.8505468 102.047939,96.8939646 101.888418,96.8939646 C101.627767,96.8939646 101.424017,96.8130835 101.276919,96.6515696 C101.129573,96.4895595 101.056273,96.2687494 101.056273,95.988643 L101.106962,94.141281 L101.106962,93.9748051 L101.106962,93.8877215 L101.106962,93.7862481 L100.629143,93.7862481 C100.643306,93.7495291 100.650761,93.7063595 100.650761,93.6557468 C100.650761,93.6056304 100.643306,93.5599797 100.629143,93.5187949 L101.106962,93.5187949 L101.106962,93.4753772 C101.106962,93.229757 101.089817,92.9838886 101.056273,92.7382684 L101.678456,92.507038 L101.68591,92.5648456" id="Fill-60" fill="#853324"></path>
                <path d="M105.457024,91.9703949 L105.543742,91.9703949 L105.724881,91.9703949 C105.778055,91.9560051 105.823526,91.9463291 105.862288,91.9413671 C105.833216,92.1160304 105.811599,92.3542076 105.797187,92.6551544 C105.782776,92.9563494 105.77557,93.3059241 105.77557,93.7041266 L105.77557,94.0390633 L108.757774,94.0390633 L108.757774,92.9245924 C108.757774,92.5995797 108.75032,92.2715899 108.736157,91.9413671 C108.792561,91.951043 108.841262,91.9584861 108.881267,91.9629519 C108.921271,91.9679139 108.972209,91.9703949 109.033582,91.9703949 C109.146887,91.9703949 109.272119,91.960719 109.409277,91.9413671 L109.387412,92.0497873 L109.351134,92.8670329 L109.351134,93.6621975 L109.336723,95.1733823 L109.351134,95.9759899 L109.387412,96.8145722 C109.339704,96.8048962 109.286034,96.7977013 109.226151,96.7929873 C109.166517,96.7880253 109.127009,96.7857924 109.108125,96.7857924 L108.685468,96.8145722 L108.692674,96.7346835 L108.736157,96.0077468 L108.757774,95.2006734 L108.757774,94.3283494 L105.77557,94.3283494 L105.77557,96.0367747 C105.77557,96.2645316 105.780043,96.424557 105.789733,96.5166025 C105.799424,96.6088962 105.814084,96.7078886 105.833216,96.8145722 C105.683883,96.7954684 105.570329,96.7857924 105.493053,96.7857924 C105.435407,96.7857924 105.370058,96.7892658 105.297752,96.7967089 C105.225445,96.8039038 105.169787,96.8096101 105.131273,96.8145722 L105.210785,93.7128101 C105.210785,92.999519 105.188919,92.409038 105.145684,91.9413671 L105.239857,91.9629519 L105.457024,91.9703949" id="Fill-61" fill="#853324"></path>
                <path d="M110.986849,94.8416709 L111.942486,94.8558127 L112.268238,94.8558127 C112.446643,94.8558127 112.627782,94.8513468 112.811157,94.8416709 L112.890669,94.8416709 C112.890669,94.5002835 112.824326,94.2124861 112.69164,93.9782785 C112.558954,93.744319 112.331102,93.6272152 112.007587,93.6272152 C111.713143,93.6272152 111.469637,93.7381165 111.276572,93.9596709 C111.083506,94.1814734 110.986849,94.4752253 110.986849,94.8416709 Z M112.058276,96.9086025 C111.517841,96.9086025 111.099409,96.753043 110.80248,96.4414278 C110.5058,96.1300608 110.357212,95.6943949 110.357212,95.1341823 C110.357212,94.5982835 110.504309,94.1757671 110.799002,93.866881 C111.093197,93.5577468 111.49846,93.4031797 112.014793,93.4031797 C112.482921,93.4031797 112.841223,93.5326886 113.089698,93.7919544 C113.338174,94.0514684 113.462412,94.4191544 113.462412,94.8947646 L113.455454,95.101681 L112.877997,95.101681 L112.279171,95.101681 L110.986849,95.101681 L110.979643,95.1969519 C110.979643,95.6467595 111.085494,95.9960861 111.297195,96.2456759 C111.508896,96.4950177 111.809552,96.6195646 112.199162,96.6195646 C112.627534,96.6195646 112.993041,96.4533367 113.295933,96.120881 L113.339416,96.1352709 L113.28177,96.4967544 C113.078765,96.6339544 112.879985,96.7369165 112.684434,96.8056405 C112.488884,96.8741165 112.280165,96.9086025 112.058276,96.9086025 L112.058276,96.9086025 Z" id="Fill-62" fill="#853324"></path>
                <path d="M116.191668,95.0366785 L115.677572,95.153038 C115.262617,95.2448354 114.993518,95.3381215 114.870523,95.4324 C114.747527,95.5266785 114.685905,95.6879443 114.685905,95.9152051 C114.685905,96.1186481 114.745043,96.2818987 114.863317,96.4054532 C114.981591,96.5290076 115.134901,96.5907848 115.322997,96.5907848 C115.477549,96.5907848 115.634337,96.5486076 115.793361,96.4642532 C115.952883,96.3798987 116.078363,96.2558481 116.17005,96.0918532 L116.191668,95.0366785 Z M115.561782,93.3744 C115.938223,93.3744 116.227697,93.4706633 116.430701,93.663438 C116.633209,93.8562127 116.734338,94.1330937 116.734338,94.4945772 L116.698309,95.6872 C116.698309,96.0824253 116.715206,96.3305266 116.748998,96.4315038 C116.782791,96.5327291 116.864788,96.5833418 116.994989,96.5833418 C117.01437,96.5833418 117.060338,96.5761468 117.132645,96.5615089 L117.132645,96.7061519 C116.944549,96.7783494 116.792482,96.8145722 116.676692,96.8145722 C116.372558,96.8145722 116.203843,96.6701772 116.17005,96.3808911 C115.85722,96.7232709 115.506372,96.8939646 115.116762,96.8939646 C114.794738,96.8939646 114.545765,96.8182937 114.370341,96.6664557 C114.194918,96.5146177 114.106957,96.2992658 114.106957,96.0196557 C114.106957,95.4946734 114.411091,95.1788405 115.01936,95.0726532 C115.627628,94.966962 116.011274,94.8582937 116.17005,94.7476405 C116.184213,94.6367392 116.191668,94.5645418 116.191668,94.5308 C116.191668,94.2705418 116.119361,94.0608962 115.9745,93.9021114 C115.829887,93.7428304 115.634337,93.663438 115.388098,93.663438 C114.968422,93.663438 114.669009,93.8318987 114.490604,94.1693165 L114.418297,94.1693165 L114.418297,93.7718582 C114.601424,93.6515291 114.787284,93.5550177 114.975628,93.4825722 C115.163724,93.4103747 115.359274,93.3744 115.561782,93.3744 L115.561782,93.3744 Z" id="Fill-63" fill="#853324"></path>
                <path d="M117.849248,92.2827544 L117.822165,91.5672304 L117.812971,91.4950329 C117.870369,91.504957 117.917828,91.5121519 117.956093,91.5166177 C117.994358,91.5215797 118.051508,91.5240608 118.128038,91.5240608 L118.313898,91.5240608 C118.361357,91.5096709 118.399622,91.4999949 118.428445,91.4950329 C118.428445,91.5818684 118.419748,91.710881 118.403101,91.8818228 C118.386204,92.0530127 118.377756,92.1939342 118.377756,92.3045873 L118.377756,93.1791443 L118.370302,94.1405367 L118.377756,95.0294835 L118.377756,95.9184304 L118.370302,96.8145722 C118.234137,96.7954684 118.137232,96.7857924 118.079337,96.7857924 C118.013242,96.7857924 117.924288,96.7954684 117.812971,96.8145722 L117.849248,95.0438734 L117.849248,92.2827544" id="Fill-64" fill="#853324"></path>
                <path d="M120.230639,92.5648456 L120.179701,93.5187949 L120.954448,93.5187949 C120.935067,93.5922329 120.925377,93.6376354 120.925377,93.6557468 C120.925377,93.6835342 120.935067,93.7269519 120.954448,93.7862481 L120.179701,93.7862481 L120.179701,95.5904405 C120.179701,96.0109722 120.216724,96.2945519 120.290273,96.4419241 C120.363822,96.5892962 120.504956,96.6629823 120.713924,96.6629823 C120.813314,96.6629823 120.884378,96.6545468 120.927116,96.6384203 C120.969854,96.6222937 121.00787,96.6086481 121.041166,96.5977316 L121.041166,96.7642076 C120.795175,96.8505468 120.592668,96.8939646 120.433146,96.8939646 C120.172495,96.8939646 119.968745,96.8130835 119.821648,96.6515696 C119.674302,96.4895595 119.600753,96.2687494 119.600753,95.988643 L119.651442,94.141281 L119.651442,93.9748051 L119.651442,93.8877215 L119.651442,93.7862481 L119.173872,93.7862481 C119.188035,93.7495291 119.195489,93.7063595 119.195489,93.6557468 C119.195489,93.6056304 119.188035,93.5599797 119.173872,93.5187949 L119.651442,93.5187949 L119.651442,93.4753772 C119.651442,93.229757 119.634546,92.9838886 119.600753,92.7382684 L120.223184,92.507038 L120.230639,92.5648456" id="Fill-65" fill="#853324"></path>
                <path d="M121.598248,92.3767848 L121.56222,91.4950329 C121.624338,91.504957 121.676767,91.5121519 121.719753,91.5166177 C121.762739,91.5215797 121.812683,91.5240608 121.869832,91.5240608 L122.055941,91.5240608 C122.108369,91.5096709 122.14887,91.4999949 122.177445,91.4950329 C122.167009,91.5962582 122.156325,91.705919 122.145889,91.8240152 C122.135204,91.9421114 122.129738,92.0589671 122.129738,92.1745823 L122.097933,94.0030886 L122.097933,94.0608962 L122.13421,94.0752861 C122.370511,93.6272152 122.74223,93.4031797 123.248872,93.4031797 C123.615622,93.4031797 123.902611,93.5093671 124.110337,93.7212456 C124.317814,93.9333722 124.421428,94.2296051 124.421428,94.6101924 L124.392605,96.2002734 L124.414223,96.8145722 C124.312845,96.7954684 124.218672,96.7857924 124.131954,96.7857924 L124.008959,96.7857924 C123.975166,96.7857924 123.907581,96.7954684 123.806203,96.8145722 C123.825335,96.6508253 123.84248,96.4061975 123.856892,96.0809367 C123.871303,95.7556759 123.878509,95.4653975 123.878509,95.2101013 C123.878509,94.8873215 123.872546,94.6692405 123.86037,94.5558582 C123.848195,94.4427241 123.817881,94.3248759 123.769677,94.2018177 C123.720976,94.0790076 123.626555,93.9743089 123.485918,93.8874734 C123.345529,93.800638 123.192716,93.7574684 123.028226,93.7574684 C122.858517,93.7574684 122.702474,93.7996456 122.559601,93.8837519 C122.41623,93.9681063 122.313361,94.0742937 122.250497,94.2018177 C122.187633,94.3295899 122.146386,94.459843 122.127005,94.592081 C122.107375,94.7248152 122.097933,94.962 122.097933,95.3041316 L122.097933,96.0484354 L122.177445,96.8145722 C122.044014,96.7954684 121.947854,96.7857924 121.888468,96.7857924 C121.834052,96.7857924 121.789575,96.7870329 121.755037,96.7892658 C121.720498,96.7917468 121.656143,96.8001823 121.56222,96.8145722 C121.571413,96.6411494 121.579613,96.3858532 121.587316,96.0484354 C121.59477,95.7112658 121.598248,95.4028759 121.598248,95.1235139 L121.598248,92.3767848" id="Fill-66" fill="#853324"></path>
                <path d="M128.199997,92.2251949 C128.026313,92.1192557 127.939346,92.0155494 127.939346,91.9143241 C127.939346,91.8565165 127.962454,91.8071443 128.008174,91.7662076 C128.054142,91.7252709 128.106073,91.7046785 128.16372,91.7046785 C128.226335,91.7046785 128.281994,91.720557 128.330198,91.7518177 C128.378651,91.7830785 128.477544,91.8684253 128.627127,92.0083544 L129.560898,92.8757165 L129.300495,92.8757165 L128.199997,92.2251949" id="Fill-67" fill="#853324"></path>
            </g>
        </g>
    </g>
</svg>